{
  "asset": {
    "version": "2.0",
    "generator": "@plasius/gpu-shared showcase asset generator"
  },
  "scene": 0,
  "scenes": [
    {
      "nodes": [
        0
      ]
    }
  ],
  "nodes": [
    {
      "name": "brigantine",
      "children": [
        1,
        2,
        3
      ],
      "extras": {
        "physics": {
          "shape": "box",
          "halfExtents": [
            1.58,
            1.12,
            4.4
          ],
          "mass": 4700,
          "restitution": 0.2,
          "linearDamping": 0.038,
          "angularDamping": 0.076,
          "waterline": 0.44
        }
      }
    },
    {
      "name": "brigantine-hull",
      "mesh": 0
    },
    {
      "name": "brigantine-rig",
      "mesh": 1
    },
    {
      "name": "brigantine-lanterns",
      "mesh": 2
    }
  ],
  "meshes": [
    {
      "name": "brigantine-hull",
      "primitives": [
        {
          "attributes": {
            "POSITION": 0,
            "NORMAL": 1
          },
          "indices": 2,
          "material": 0
        },
        {
          "attributes": {
            "POSITION": 3,
            "NORMAL": 4
          },
          "indices": 5,
          "material": 1
        },
        {
          "attributes": {
            "POSITION": 6,
            "NORMAL": 7
          },
          "indices": 8,
          "material": 2
        }
      ]
    },
    {
      "name": "brigantine-rig",
      "primitives": [
        {
          "attributes": {
            "POSITION": 9,
            "NORMAL": 10
          },
          "indices": 11,
          "material": 3
        },
        {
          "attributes": {
            "POSITION": 12,
            "NORMAL": 13
          },
          "indices": 14,
          "material": 4
        },
        {
          "attributes": {
            "POSITION": 15,
            "NORMAL": 16
          },
          "indices": 17,
          "material": 5
        },
        {
          "attributes": {
            "POSITION": 18,
            "NORMAL": 19
          },
          "indices": 20,
          "material": 6
        }
      ]
    },
    {
      "name": "brigantine-lanterns",
      "primitives": [
        {
          "attributes": {
            "POSITION": 21,
            "NORMAL": 22
          },
          "indices": 23,
          "material": 7
        }
      ]
    }
  ],
  "materials": [
    {
      "name": "painted-hull",
      "pbrMetallicRoughness": {
        "baseColorFactor": [
          0.14,
          0.052,
          0.025,
          1
        ],
        "metallicFactor": 0.08,
        "roughnessFactor": 0.76
      }
    },
    {
      "name": "deck-plank",
      "pbrMetallicRoughness": {
        "baseColorFactor": [
          0.31,
          0.2,
          0.095,
          1
        ],
        "metallicFactor": 0.02,
        "roughnessFactor": 0.9
      }
    },
    {
      "name": "hull-trim",
      "pbrMetallicRoughness": {
        "baseColorFactor": [
          0.72,
          0.71,
          0.66,
          1
        ],
        "metallicFactor": 0.18,
        "roughnessFactor": 0.42
      }
    },
    {
      "name": "mast-wood",
      "pbrMetallicRoughness": {
        "baseColorFactor": [
          0.37,
          0.27,
          0.18,
          1
        ],
        "metallicFactor": 0.02,
        "roughnessFactor": 0.82
      }
    },
    {
      "name": "sail-canvas",
      "pbrMetallicRoughness": {
        "baseColorFactor": [
          0.82,
          0.79,
          0.72,
          1
        ],
        "metallicFactor": 0,
        "roughnessFactor": 0.96
      }
    },
    {
      "name": "metal-dark",
      "pbrMetallicRoughness": {
        "baseColorFactor": [
          0.21,
          0.22,
          0.24,
          1
        ],
        "metallicFactor": 0.84,
        "roughnessFactor": 0.34
      }
    },
    {
      "name": "rigging-rope",
      "pbrMetallicRoughness": {
        "baseColorFactor": [
          0.055,
          0.038,
          0.023,
          1
        ],
        "metallicFactor": 0,
        "roughnessFactor": 0.96
      }
    },
    {
      "name": "warm-glass",
      "pbrMetallicRoughness": {
        "baseColorFactor": [
          0.95,
          0.82,
          0.56,
          0.84
        ],
        "metallicFactor": 0.02,
        "roughnessFactor": 0.16
      },
      "emissiveFactor": [
        0.92,
        0.7,
        0.34
      ],
      "alphaMode": "BLEND"
    }
  ],
  "buffers": [
    {
      "uri": "data:application/octet-stream;base64,",
      "byteLength": 319488
    }
  ],
  "bufferViews": [
    {
      "buffer": 0,
      "byteOffset": 0,
      "byteLength": 10800,
      "target": 34962
    },
    {
      "buffer": 0,
      "byteOffset": 10800,
      "byteLength": 10800,
      "target": 34962
    },
    {
      "buffer": 0,
      "byteOffset": 21600,
      "byteLength": 1800,
      "target": 34963
    },
    {
      "buffer": 0,
      "byteOffset": 23400,
      "byteLength": 4320,
      "target": 34962
    },
    {
      "buffer": 0,
      "byteOffset": 27720,
      "byteLength": 4320,
      "target": 34962
    },
    {
      "buffer": 0,
      "byteOffset": 32040,
      "byteLength": 720,
      "target": 34963
    },
    {
      "buffer": 0,
      "byteOffset": 32760,
      "byteLength": 432,
      "target": 34962
    },
    {
      "buffer": 0,
      "byteOffset": 33192,
      "byteLength": 432,
      "target": 34962
    },
    {
      "buffer": 0,
      "byteOffset": 33624,
      "byteLength": 72,
      "target": 34963
    },
    {
      "buffer": 0,
      "byteOffset": 33696,
      "byteLength": 16560,
      "target": 34962
    },
    {
      "buffer": 0,
      "byteOffset": 50256,
      "byteLength": 16560,
      "target": 34962
    },
    {
      "buffer": 0,
      "byteOffset": 66816,
      "byteLength": 2760,
      "target": 34963
    },
    {
      "buffer": 0,
      "byteOffset": 69576,
      "byteLength": 27648,
      "target": 34962
    },
    {
      "buffer": 0,
      "byteOffset": 97224,
      "byteLength": 27648,
      "target": 34962
    },
    {
      "buffer": 0,
      "byteOffset": 124872,
      "byteLength": 4608,
      "target": 34963
    },
    {
      "buffer": 0,
      "byteOffset": 129480,
      "byteLength": 432,
      "target": 34962
    },
    {
      "buffer": 0,
      "byteOffset": 129912,
      "byteLength": 432,
      "target": 34962
    },
    {
      "buffer": 0,
      "byteOffset": 130344,
      "byteLength": 72,
      "target": 34963
    },
    {
      "buffer": 0,
      "byteOffset": 130416,
      "byteLength": 82944,
      "target": 34962
    },
    {
      "buffer": 0,
      "byteOffset": 213360,
      "byteLength": 82944,
      "target": 34962
    },
    {
      "buffer": 0,
      "byteOffset": 296304,
      "byteLength": 13824,
      "target": 34963
    },
    {
      "buffer": 0,
      "byteOffset": 310128,
      "byteLength": 4320,
      "target": 34962
    },
    {
      "buffer": 0,
      "byteOffset": 314448,
      "byteLength": 4320,
      "target": 34962
    },
    {
      "buffer": 0,
      "byteOffset": 318768,
      "byteLength": 720,
      "target": 34963
    }
  ],
  "accessors": [
    {
      "bufferView": 0,
      "byteOffset": 0,
      "componentType": 5126,
      "count": 900,
      "type": "VEC3",
      "min": [
        -1.58,
        -1.08078125,
        -4.4
      ],
      "max": [
        1.58,
        1.02,
        3.9
      ]
    },
    {
      "bufferView": 1,
      "byteOffset": 0,
      "componentType": 5126,
      "count": 900,
      "type": "VEC3"
    },
    {
      "bufferView": 2,
      "byteOffset": 0,
      "componentType": 5123,
      "count": 900,
      "type": "SCALAR",
      "min": [
        0
      ],
      "max": [
        899
      ]
    },
    {
      "bufferView": 3,
      "byteOffset": 0,
      "componentType": 5126,
      "count": 360,
      "type": "VEC3",
      "min": [
        -1.58,
        0.78,
        -4.4
      ],
      "max": [
        1.58,
        1.54,
        3.9
      ]
    },
    {
      "bufferView": 4,
      "byteOffset": 0,
      "componentType": 5126,
      "count": 360,
      "type": "VEC3"
    },
    {
      "bufferView": 5,
      "byteOffset": 0,
      "componentType": 5123,
      "count": 360,
      "type": "SCALAR",
      "min": [
        0
      ],
      "max": [
        359
      ]
    },
    {
      "bufferView": 6,
      "byteOffset": 0,
      "componentType": 5126,
      "count": 36,
      "type": "VEC3",
      "min": [
        -0.56,
        1.3399999999999999,
        -2.0300000000000002
      ],
      "max": [
        0.56,
        1.62,
        -0.9299999999999999
      ]
    },
    {
      "bufferView": 7,
      "byteOffset": 0,
      "componentType": 5126,
      "count": 36,
      "type": "VEC3"
    },
    {
      "bufferView": 8,
      "byteOffset": 0,
      "componentType": 5123,
      "count": 36,
      "type": "SCALAR",
      "min": [
        0
      ],
      "max": [
        35
      ]
    },
    {
      "bufferView": 9,
      "byteOffset": 0,
      "componentType": 5126,
      "count": 1380,
      "type": "VEC3",
      "min": [
        -1.3685733171909207,
        0.8499999999999996,
        -3.1270000000000002
      ],
      "max": [
        2.18,
        6.25,
        5.05
      ]
    },
    {
      "bufferView": 10,
      "byteOffset": 0,
      "componentType": 5126,
      "count": 1380,
      "type": "VEC3"
    },
    {
      "bufferView": 11,
      "byteOffset": 0,
      "componentType": 5123,
      "count": 1380,
      "type": "SCALAR",
      "min": [
        0
      ],
      "max": [
        1379
      ]
    },
    {
      "bufferView": 12,
      "byteOffset": 0,
      "componentType": 5126,
      "count": 2304,
      "type": "VEC3",
      "min": [
        -0.08,
        1.12,
        -3.200696218548914
      ],
      "max": [
        1.86,
        4.82,
        -0.74
      ]
    },
    {
      "bufferView": 13,
      "byteOffset": 0,
      "componentType": 5126,
      "count": 2304,
      "type": "VEC3"
    },
    {
      "bufferView": 14,
      "byteOffset": 0,
      "componentType": 5123,
      "count": 2304,
      "type": "SCALAR",
      "min": [
        0
      ],
      "max": [
        2303
      ]
    },
    {
      "bufferView": 15,
      "byteOffset": 0,
      "componentType": 5126,
      "count": 36,
      "type": "VEC3",
      "min": [
        -0.96,
        0.78,
        1.26
      ],
      "max": [
        0.96,
        0.88,
        1.44
      ]
    },
    {
      "bufferView": 16,
      "byteOffset": 0,
      "componentType": 5126,
      "count": 36,
      "type": "VEC3"
    },
    {
      "bufferView": 17,
      "byteOffset": 0,
      "componentType": 5123,
      "count": 36,
      "type": "SCALAR",
      "min": [
        0
      ],
      "max": [
        35
      ]
    },
    {
      "bufferView": 18,
      "byteOffset": 0,
      "componentType": 5126,
      "count": 6912,
      "type": "VEC3",
      "min": [
        -1.3631906312887407,
        1.0949442728573684,
        -3.582768754896485
      ],
      "max": [
        1.3631906312887407,
        5.912355785183844,
        4.809504450141418
      ]
    },
    {
      "bufferView": 19,
      "byteOffset": 0,
      "componentType": 5126,
      "count": 6912,
      "type": "VEC3"
    },
    {
      "bufferView": 20,
      "byteOffset": 0,
      "componentType": 5123,
      "count": 6912,
      "type": "SCALAR",
      "min": [
        0
      ],
      "max": [
        6911
      ]
    },
    {
      "bufferView": 21,
      "byteOffset": 0,
      "componentType": 5126,
      "count": 360,
      "type": "VEC3",
      "min": [
        -0.7999999999999999,
        1.06,
        -1.62
      ],
      "max": [
        0.7999999999999999,
        1.3599999999999999,
        1.04
      ]
    },
    {
      "bufferView": 22,
      "byteOffset": 0,
      "componentType": 5126,
      "count": 360,
      "type": "VEC3"
    },
    {
      "bufferView": 23,
      "byteOffset": 0,
      "componentType": 5123,
      "count": 360,
      "type": "SCALAR",
      "min": [
        0
      ],
      "max": [
        359
      ]
    }
  ]
}
