{
  "asset": {
    "version": "2.0",
    "generator": "@plasius/gpu-shared showcase asset generator"
  },
  "scene": 0,
  "scenes": [
    {
      "nodes": [
        0
      ]
    }
  ],
  "nodes": [
    {
      "name": "brigantine",
      "children": [
        1,
        2,
        3
      ],
      "extras": {
        "physics": {
          "shape": "box",
          "halfExtents": [
            1.58,
            1.12,
            4.4
          ],
          "mass": 4700,
          "restitution": 0.2,
          "linearDamping": 0.038,
          "angularDamping": 0.076,
          "waterline": 0.44
        }
      }
    },
    {
      "name": "brigantine-hull",
      "mesh": 0
    },
    {
      "name": "brigantine-rig",
      "mesh": 1
    },
    {
      "name": "brigantine-lanterns",
      "mesh": 2
    }
  ],
  "meshes": [
    {
      "name": "brigantine-hull",
      "primitives": [
        {
          "attributes": {
            "POSITION": 0,
            "NORMAL": 1
          },
          "indices": 2,
          "material": 0
        },
        {
          "attributes": {
            "POSITION": 3,
            "NORMAL": 4
          },
          "indices": 5,
          "material": 1
        },
        {
          "attributes": {
            "POSITION": 6,
            "NORMAL": 7
          },
          "indices": 8,
          "material": 2
        }
      ]
    },
    {
      "name": "brigantine-rig",
      "primitives": [
        {
          "attributes": {
            "POSITION": 9,
            "NORMAL": 10
          },
          "indices": 11,
          "material": 3
        },
        {
          "attributes": {
            "POSITION": 12,
            "NORMAL": 13
          },
          "indices": 14,
          "material": 4
        },
        {
          "attributes": {
            "POSITION": 15,
            "NORMAL": 16
          },
          "indices": 17,
          "material": 5
        }
      ]
    },
    {
      "name": "brigantine-lanterns",
      "primitives": [
        {
          "attributes": {
            "POSITION": 18,
            "NORMAL": 19
          },
          "indices": 20,
          "material": 6
        }
      ]
    }
  ],
  "materials": [
    {
      "name": "painted-hull",
      "pbrMetallicRoughness": {
        "baseColorFactor": [
          0.42,
          0.24,
          0.16,
          1
        ],
        "metallicFactor": 0.08,
        "roughnessFactor": 0.76
      }
    },
    {
      "name": "deck-plank",
      "pbrMetallicRoughness": {
        "baseColorFactor": [
          0.53,
          0.39,
          0.26,
          1
        ],
        "metallicFactor": 0.02,
        "roughnessFactor": 0.9
      }
    },
    {
      "name": "hull-trim",
      "pbrMetallicRoughness": {
        "baseColorFactor": [
          0.72,
          0.71,
          0.66,
          1
        ],
        "metallicFactor": 0.18,
        "roughnessFactor": 0.42
      }
    },
    {
      "name": "mast-wood",
      "pbrMetallicRoughness": {
        "baseColorFactor": [
          0.37,
          0.27,
          0.18,
          1
        ],
        "metallicFactor": 0.02,
        "roughnessFactor": 0.82
      }
    },
    {
      "name": "sail-canvas",
      "pbrMetallicRoughness": {
        "baseColorFactor": [
          0.82,
          0.79,
          0.72,
          1
        ],
        "metallicFactor": 0,
        "roughnessFactor": 0.96
      }
    },
    {
      "name": "metal-dark",
      "pbrMetallicRoughness": {
        "baseColorFactor": [
          0.21,
          0.22,
          0.24,
          1
        ],
        "metallicFactor": 0.84,
        "roughnessFactor": 0.34
      }
    },
    {
      "name": "warm-glass",
      "pbrMetallicRoughness": {
        "baseColorFactor": [
          0.95,
          0.82,
          0.56,
          0.84
        ],
        "metallicFactor": 0.02,
        "roughnessFactor": 0.16
      },
      "emissiveFactor": [
        0.92,
        0.7,
        0.34
      ],
      "alphaMode": "BLEND"
    }
  ],
  "buffers": [
    {
      "uri": "data:application/octet-stream;base64,",
      "byteLength": 36192
    }
  ],
  "bufferViews": [
    {
      "buffer": 0,
      "byteOffset": 0,
      "byteLength": 3024,
      "target": 34962
    },
    {
      "buffer": 0,
      "byteOffset": 3024,
      "byteLength": 3024,
      "target": 34962
    },
    {
      "buffer": 0,
      "byteOffset": 6048,
      "byteLength": 504,
      "target": 34963
    },
    {
      "buffer": 0,
      "byteOffset": 6552,
      "byteLength": 1728,
      "target": 34962
    },
    {
      "buffer": 0,
      "byteOffset": 8280,
      "byteLength": 1728,
      "target": 34962
    },
    {
      "buffer": 0,
      "byteOffset": 10008,
      "byteLength": 288,
      "target": 34963
    },
    {
      "buffer": 0,
      "byteOffset": 10296,
      "byteLength": 864,
      "target": 34962
    },
    {
      "buffer": 0,
      "byteOffset": 11160,
      "byteLength": 864,
      "target": 34962
    },
    {
      "buffer": 0,
      "byteOffset": 12024,
      "byteLength": 144,
      "target": 34963
    },
    {
      "buffer": 0,
      "byteOffset": 12168,
      "byteLength": 6192,
      "target": 34962
    },
    {
      "buffer": 0,
      "byteOffset": 18360,
      "byteLength": 6192,
      "target": 34962
    },
    {
      "buffer": 0,
      "byteOffset": 24552,
      "byteLength": 1032,
      "target": 34963
    },
    {
      "buffer": 0,
      "byteOffset": 25584,
      "byteLength": 144,
      "target": 34962
    },
    {
      "buffer": 0,
      "byteOffset": 25728,
      "byteLength": 144,
      "target": 34962
    },
    {
      "buffer": 0,
      "byteOffset": 25872,
      "byteLength": 24,
      "target": 34963
    },
    {
      "buffer": 0,
      "byteOffset": 25896,
      "byteLength": 432,
      "target": 34962
    },
    {
      "buffer": 0,
      "byteOffset": 26328,
      "byteLength": 432,
      "target": 34962
    },
    {
      "buffer": 0,
      "byteOffset": 26760,
      "byteLength": 72,
      "target": 34963
    },
    {
      "buffer": 0,
      "byteOffset": 26832,
      "byteLength": 4320,
      "target": 34962
    },
    {
      "buffer": 0,
      "byteOffset": 31152,
      "byteLength": 4320,
      "target": 34962
    },
    {
      "buffer": 0,
      "byteOffset": 35472,
      "byteLength": 720,
      "target": 34963
    }
  ],
  "accessors": [
    {
      "bufferView": 0,
      "byteOffset": 0,
      "componentType": 5126,
      "count": 252,
      "type": "VEC3",
      "min": [
        -1.58,
        -1.08,
        -4.4
      ],
      "max": [
        1.58,
        1.02,
        3.9
      ]
    },
    {
      "bufferView": 1,
      "byteOffset": 0,
      "componentType": 5126,
      "count": 252,
      "type": "VEC3"
    },
    {
      "bufferView": 2,
      "byteOffset": 0,
      "componentType": 5123,
      "count": 252,
      "type": "SCALAR",
      "min": [
        0
      ],
      "max": [
        251
      ]
    },
    {
      "bufferView": 3,
      "byteOffset": 0,
      "componentType": 5126,
      "count": 144,
      "type": "VEC3",
      "min": [
        -1.58,
        0.78,
        -4.4
      ],
      "max": [
        1.58,
        1.54,
        3.9
      ]
    },
    {
      "bufferView": 4,
      "byteOffset": 0,
      "componentType": 5126,
      "count": 144,
      "type": "VEC3"
    },
    {
      "bufferView": 5,
      "byteOffset": 0,
      "componentType": 5123,
      "count": 144,
      "type": "SCALAR",
      "min": [
        0
      ],
      "max": [
        143
      ]
    },
    {
      "bufferView": 6,
      "byteOffset": 0,
      "componentType": 5126,
      "count": 72,
      "type": "VEC3",
      "min": [
        -1.48,
        0.84,
        -2.2
      ],
      "max": [
        1.48,
        1.62,
        2.4
      ]
    },
    {
      "bufferView": 7,
      "byteOffset": 0,
      "componentType": 5126,
      "count": 72,
      "type": "VEC3"
    },
    {
      "bufferView": 8,
      "byteOffset": 0,
      "componentType": 5123,
      "count": 72,
      "type": "SCALAR",
      "min": [
        0
      ],
      "max": [
        71
      ]
    },
    {
      "bufferView": 9,
      "byteOffset": 0,
      "componentType": 5126,
      "count": 516,
      "type": "VEC3",
      "min": [
        -0.16,
        0.8499999999999996,
        -3
      ],
      "max": [
        2.18,
        6.25,
        5.05
      ]
    },
    {
      "bufferView": 10,
      "byteOffset": 0,
      "componentType": 5126,
      "count": 516,
      "type": "VEC3"
    },
    {
      "bufferView": 11,
      "byteOffset": 0,
      "componentType": 5123,
      "count": 516,
      "type": "SCALAR",
      "min": [
        0
      ],
      "max": [
        515
      ]
    },
    {
      "bufferView": 12,
      "byteOffset": 0,
      "componentType": 5126,
      "count": 12,
      "type": "VEC3",
      "min": [
        -0.08,
        1.12,
        -2.96
      ],
      "max": [
        1.86,
        4.82,
        -0.74
      ]
    },
    {
      "bufferView": 13,
      "byteOffset": 0,
      "componentType": 5126,
      "count": 12,
      "type": "VEC3"
    },
    {
      "bufferView": 14,
      "byteOffset": 0,
      "componentType": 5123,
      "count": 12,
      "type": "SCALAR",
      "min": [
        0
      ],
      "max": [
        11
      ]
    },
    {
      "bufferView": 15,
      "byteOffset": 0,
      "componentType": 5126,
      "count": 36,
      "type": "VEC3",
      "min": [
        -0.96,
        0.78,
        1.26
      ],
      "max": [
        0.96,
        0.88,
        1.44
      ]
    },
    {
      "bufferView": 16,
      "byteOffset": 0,
      "componentType": 5126,
      "count": 36,
      "type": "VEC3"
    },
    {
      "bufferView": 17,
      "byteOffset": 0,
      "componentType": 5123,
      "count": 36,
      "type": "SCALAR",
      "min": [
        0
      ],
      "max": [
        35
      ]
    },
    {
      "bufferView": 18,
      "byteOffset": 0,
      "componentType": 5126,
      "count": 360,
      "type": "VEC3",
      "min": [
        -0.7999999999999999,
        1.06,
        -1.62
      ],
      "max": [
        0.7999999999999999,
        1.3599999999999999,
        1.04
      ]
    },
    {
      "bufferView": 19,
      "byteOffset": 0,
      "componentType": 5126,
      "count": 360,
      "type": "VEC3"
    },
    {
      "bufferView": 20,
      "byteOffset": 0,
      "componentType": 5123,
      "count": 360,
      "type": "SCALAR",
      "min": [
        0
      ],
      "max": [
        359
      ]
    }
  ]
}
