{
  "asset": {
    "version": "2.0",
    "generator": "@plasius/gpu-shared showcase asset generator"
  },
  "scene": 0,
  "scenes": [
    {
      "nodes": [
        0
      ]
    }
  ],
  "nodes": [
    {
      "name": "coaster",
      "children": [
        1,
        2,
        3
      ],
      "extras": {
        "physics": {
          "shape": "box",
          "halfExtents": [
            1.45,
            4.2,
            4.6
          ],
          "mass": 6200,
          "waterline": 0.4,
          "linearDamping": 0.05,
          "angularDamping": 0.1,
          "restitution": 0.15
        }
      }
    },
    {
      "name": "coaster-hull",
      "mesh": 0
    },
    {
      "name": "coaster-wheelhouse",
      "mesh": 1
    },
    {
      "name": "coaster-cargo-hold",
      "mesh": 2
    }
  ],
  "meshes": [
    {
      "name": "coaster-hull",
      "primitives": [
        {
          "attributes": {
            "POSITION": 0,
            "NORMAL": 1
          },
          "indices": 2,
          "material": 0
        },
        {
          "attributes": {
            "POSITION": 3,
            "NORMAL": 4
          },
          "indices": 5,
          "material": 1
        }
      ]
    },
    {
      "name": "coaster-wheelhouse",
      "primitives": [
        {
          "attributes": {
            "POSITION": 6,
            "NORMAL": 7
          },
          "indices": 8,
          "material": 2
        },
        {
          "attributes": {
            "POSITION": 9,
            "NORMAL": 10
          },
          "indices": 11,
          "material": 3
        },
        {
          "attributes": {
            "POSITION": 12,
            "NORMAL": 13
          },
          "indices": 14,
          "material": 4
        }
      ]
    },
    {
      "name": "coaster-cargo-hold",
      "primitives": [
        {
          "attributes": {
            "POSITION": 15,
            "NORMAL": 16
          },
          "indices": 17,
          "material": 4
        },
        {
          "attributes": {
            "POSITION": 18,
            "NORMAL": 19
          },
          "indices": 20,
          "material": 5
        },
        {
          "attributes": {
            "POSITION": 21,
            "NORMAL": 22
          },
          "indices": 23,
          "material": 6
        }
      ]
    }
  ],
  "materials": [
    {
      "name": "painted-workboat-hull",
      "pbrMetallicRoughness": {
        "baseColorFactor": [
          0.32,
          0.38,
          0.4,
          1
        ],
        "metallicFactor": 0,
        "roughnessFactor": 0.8
      }
    },
    {
      "name": "deck-plank",
      "pbrMetallicRoughness": {
        "baseColorFactor": [
          0.31,
          0.2,
          0.095,
          1
        ],
        "metallicFactor": 0.02,
        "roughnessFactor": 0.9
      }
    },
    {
      "name": "paint-white",
      "pbrMetallicRoughness": {
        "baseColorFactor": [
          0.84,
          0.84,
          0.82,
          1
        ],
        "metallicFactor": 0,
        "roughnessFactor": 0.88
      }
    },
    {
      "name": "warehouse-glazing",
      "pbrMetallicRoughness": {
        "baseColorFactor": [
          0.028,
          0.055,
          0.069,
          1
        ],
        "metallicFactor": 0,
        "roughnessFactor": 0.22
      }
    },
    {
      "name": "metal-dark",
      "pbrMetallicRoughness": {
        "baseColorFactor": [
          0.21,
          0.22,
          0.24,
          1
        ],
        "metallicFactor": 0.84,
        "roughnessFactor": 0.34
      }
    },
    {
      "name": "crate-wood",
      "pbrMetallicRoughness": {
        "baseColorFactor": [
          0.44,
          0.31,
          0.17,
          1
        ],
        "metallicFactor": 0.02,
        "roughnessFactor": 0.92
      }
    },
    {
      "name": "rigging-rope",
      "pbrMetallicRoughness": {
        "baseColorFactor": [
          0.055,
          0.038,
          0.023,
          1
        ],
        "metallicFactor": 0,
        "roughnessFactor": 0.96
      }
    }
  ],
  "buffers": [
    {
      "uri": "data:application/octet-stream;base64,",
      "byteLength": 196560
    }
  ],
  "bufferViews": [
    {
      "buffer": 0,
      "byteOffset": 0,
      "byteLength": 7344,
      "target": 34962
    },
    {
      "buffer": 0,
      "byteOffset": 7344,
      "byteLength": 7344,
      "target": 34962
    },
    {
      "buffer": 0,
      "byteOffset": 14688,
      "byteLength": 1224,
      "target": 34963
    },
    {
      "buffer": 0,
      "byteOffset": 15912,
      "byteLength": 2304,
      "target": 34962
    },
    {
      "buffer": 0,
      "byteOffset": 18216,
      "byteLength": 2304,
      "target": 34962
    },
    {
      "buffer": 0,
      "byteOffset": 20520,
      "byteLength": 384,
      "target": 34963
    },
    {
      "buffer": 0,
      "byteOffset": 20904,
      "byteLength": 432,
      "target": 34962
    },
    {
      "buffer": 0,
      "byteOffset": 21336,
      "byteLength": 432,
      "target": 34962
    },
    {
      "buffer": 0,
      "byteOffset": 21768,
      "byteLength": 72,
      "target": 34963
    },
    {
      "buffer": 0,
      "byteOffset": 21840,
      "byteLength": 3456,
      "target": 34962
    },
    {
      "buffer": 0,
      "byteOffset": 25296,
      "byteLength": 3456,
      "target": 34962
    },
    {
      "buffer": 0,
      "byteOffset": 28752,
      "byteLength": 576,
      "target": 34963
    },
    {
      "buffer": 0,
      "byteOffset": 29328,
      "byteLength": 12528,
      "target": 34962
    },
    {
      "buffer": 0,
      "byteOffset": 41856,
      "byteLength": 12528,
      "target": 34962
    },
    {
      "buffer": 0,
      "byteOffset": 54384,
      "byteLength": 2088,
      "target": 34963
    },
    {
      "buffer": 0,
      "byteOffset": 56472,
      "byteLength": 5904,
      "target": 34962
    },
    {
      "buffer": 0,
      "byteOffset": 62376,
      "byteLength": 5904,
      "target": 34962
    },
    {
      "buffer": 0,
      "byteOffset": 68280,
      "byteLength": 984,
      "target": 34963
    },
    {
      "buffer": 0,
      "byteOffset": 69264,
      "byteLength": 1728,
      "target": 34962
    },
    {
      "buffer": 0,
      "byteOffset": 70992,
      "byteLength": 1728,
      "target": 34962
    },
    {
      "buffer": 0,
      "byteOffset": 72720,
      "byteLength": 288,
      "target": 34963
    },
    {
      "buffer": 0,
      "byteOffset": 73008,
      "byteLength": 57024,
      "target": 34962
    },
    {
      "buffer": 0,
      "byteOffset": 130032,
      "byteLength": 57024,
      "target": 34962
    },
    {
      "buffer": 0,
      "byteOffset": 187056,
      "byteLength": 9504,
      "target": 34963
    }
  ],
  "accessors": [
    {
      "bufferView": 0,
      "byteOffset": 0,
      "componentType": 5126,
      "count": 612,
      "type": "VEC3",
      "min": [
        -1.26982421875,
        -0.6859375,
        -4.6
      ],
      "max": [
        1.26982421875,
        0.85,
        4.6
      ]
    },
    {
      "bufferView": 1,
      "byteOffset": 0,
      "componentType": 5126,
      "count": 612,
      "type": "VEC3"
    },
    {
      "bufferView": 2,
      "byteOffset": 0,
      "componentType": 5123,
      "count": 612,
      "type": "SCALAR",
      "min": [
        0
      ],
      "max": [
        611
      ]
    },
    {
      "bufferView": 3,
      "byteOffset": 0,
      "componentType": 5126,
      "count": 192,
      "type": "VEC3",
      "min": [
        -1.26982421875,
        0.65,
        -4.6
      ],
      "max": [
        1.26982421875,
        0.85,
        4.6
      ]
    },
    {
      "bufferView": 4,
      "byteOffset": 0,
      "componentType": 5126,
      "count": 192,
      "type": "VEC3"
    },
    {
      "bufferView": 5,
      "byteOffset": 0,
      "componentType": 5123,
      "count": 192,
      "type": "SCALAR",
      "min": [
        0
      ],
      "max": [
        191
      ]
    },
    {
      "bufferView": 6,
      "byteOffset": 0,
      "componentType": 5126,
      "count": 36,
      "type": "VEC3",
      "min": [
        -0.8375,
        0.78,
        -3.6199999999999997
      ],
      "max": [
        0.8375,
        2.6799999999999997,
        -1.98
      ]
    },
    {
      "bufferView": 7,
      "byteOffset": 0,
      "componentType": 5126,
      "count": 36,
      "type": "VEC3"
    },
    {
      "bufferView": 8,
      "byteOffset": 0,
      "componentType": 5123,
      "count": 36,
      "type": "SCALAR",
      "min": [
        0
      ],
      "max": [
        35
      ]
    },
    {
      "bufferView": 9,
      "byteOffset": 0,
      "componentType": 5126,
      "count": 288,
      "type": "VEC3",
      "min": [
        -0.8715,
        2.21,
        -3.4999999999999996
      ],
      "max": [
        0.8715,
        2.5599999999999996,
        -1.94
      ]
    },
    {
      "bufferView": 10,
      "byteOffset": 0,
      "componentType": 5126,
      "count": 288,
      "type": "VEC3"
    },
    {
      "bufferView": 11,
      "byteOffset": 0,
      "componentType": 5123,
      "count": 288,
      "type": "SCALAR",
      "min": [
        0
      ],
      "max": [
        287
      ]
    },
    {
      "bufferView": 12,
      "byteOffset": 0,
      "componentType": 5126,
      "count": 1044,
      "type": "VEC3",
      "min": [
        -1.1443748786427972,
        0.75,
        -3.707
      ],
      "max": [
        1.144374878642797,
        4.005,
        3.707
      ]
    },
    {
      "bufferView": 13,
      "byteOffset": 0,
      "componentType": 5126,
      "count": 1044,
      "type": "VEC3"
    },
    {
      "bufferView": 14,
      "byteOffset": 0,
      "componentType": 5123,
      "count": 1044,
      "type": "SCALAR",
      "min": [
        0
      ],
      "max": [
        1043
      ]
    },
    {
      "bufferView": 15,
      "byteOffset": 0,
      "componentType": 5126,
      "count": 492,
      "type": "VEC3",
      "min": [
        -0.97,
        0.75,
        -1.5
      ],
      "max": [
        0.97,
        2.85,
        2.9899999999999998
      ]
    },
    {
      "bufferView": 16,
      "byteOffset": 0,
      "componentType": 5126,
      "count": 492,
      "type": "VEC3"
    },
    {
      "bufferView": 17,
      "byteOffset": 0,
      "componentType": 5123,
      "count": 492,
      "type": "SCALAR",
      "min": [
        0
      ],
      "max": [
        491
      ]
    },
    {
      "bufferView": 18,
      "byteOffset": 0,
      "componentType": 5126,
      "count": 144,
      "type": "VEC3",
      "min": [
        -0.82,
        0.9,
        -1.2
      ],
      "max": [
        0.82,
        1.6,
        2.2199999999999998
      ]
    },
    {
      "bufferView": 19,
      "byteOffset": 0,
      "componentType": 5126,
      "count": 144,
      "type": "VEC3"
    },
    {
      "bufferView": 20,
      "byteOffset": 0,
      "componentType": 5123,
      "count": 144,
      "type": "SCALAR",
      "min": [
        0
      ],
      "max": [
        143
      ]
    },
    {
      "bufferView": 21,
      "byteOffset": 0,
      "componentType": 5126,
      "count": 4752,
      "type": "VEC3",
      "min": [
        -1.1389921927406172,
        1.08941154273188,
        -3.6829441272433883
      ],
      "max": [
        1.1389921927406172,
        1.1455884572681199,
        3.6829441272433883
      ]
    },
    {
      "bufferView": 22,
      "byteOffset": 0,
      "componentType": 5126,
      "count": 4752,
      "type": "VEC3"
    },
    {
      "bufferView": 23,
      "byteOffset": 0,
      "componentType": 5123,
      "count": 4752,
      "type": "SCALAR",
      "min": [
        0
      ],
      "max": [
        4751
      ]
    }
  ]
}
