{
  "asset": {
    "version": "2.0",
    "generator": "@plasius/gpu-shared showcase asset generator"
  },
  "scene": 0,
  "scenes": [
    {
      "nodes": [
        0
      ]
    }
  ],
  "nodes": [
    {
      "name": "cutter",
      "children": [
        1,
        2
      ],
      "extras": {
        "physics": {
          "shape": "box",
          "halfExtents": [
            1.02,
            0.92,
            2.95
          ],
          "mass": 2400,
          "restitution": 0.24,
          "linearDamping": 0.044,
          "angularDamping": 0.084,
          "waterline": 0.36
        }
      }
    },
    {
      "name": "cutter-hull",
      "mesh": 0
    },
    {
      "name": "cutter-cabin",
      "mesh": 1
    }
  ],
  "meshes": [
    {
      "name": "cutter-hull",
      "primitives": [
        {
          "attributes": {
            "POSITION": 0,
            "NORMAL": 1
          },
          "indices": 2,
          "material": 0
        },
        {
          "attributes": {
            "POSITION": 3,
            "NORMAL": 4
          },
          "indices": 5,
          "material": 1
        }
      ]
    },
    {
      "name": "cutter-cabin",
      "primitives": [
        {
          "attributes": {
            "POSITION": 6,
            "NORMAL": 7
          },
          "indices": 8,
          "material": 2
        },
        {
          "attributes": {
            "POSITION": 9,
            "NORMAL": 10
          },
          "indices": 11,
          "material": 3
        },
        {
          "attributes": {
            "POSITION": 12,
            "NORMAL": 13
          },
          "indices": 14,
          "material": 4
        },
        {
          "attributes": {
            "POSITION": 15,
            "NORMAL": 16
          },
          "indices": 17,
          "material": 5
        }
      ]
    }
  ],
  "materials": [
    {
      "name": "painted-hull",
      "pbrMetallicRoughness": {
        "baseColorFactor": [
          0.14,
          0.052,
          0.025,
          1
        ],
        "metallicFactor": 0.08,
        "roughnessFactor": 0.76
      }
    },
    {
      "name": "deck-plank",
      "pbrMetallicRoughness": {
        "baseColorFactor": [
          0.31,
          0.2,
          0.095,
          1
        ],
        "metallicFactor": 0.02,
        "roughnessFactor": 0.9
      }
    },
    {
      "name": "paint-white",
      "pbrMetallicRoughness": {
        "baseColorFactor": [
          0.84,
          0.84,
          0.82,
          1
        ],
        "metallicFactor": 0,
        "roughnessFactor": 0.88
      }
    },
    {
      "name": "window-glass",
      "pbrMetallicRoughness": {
        "baseColorFactor": [
          0.49,
          0.66,
          0.78,
          0.72
        ],
        "metallicFactor": 0.04,
        "roughnessFactor": 0.08
      },
      "emissiveFactor": [
        0.18,
        0.24,
        0.28
      ],
      "alphaMode": "BLEND"
    },
    {
      "name": "metal-dark",
      "pbrMetallicRoughness": {
        "baseColorFactor": [
          0.21,
          0.22,
          0.24,
          1
        ],
        "metallicFactor": 0.84,
        "roughnessFactor": 0.34
      }
    },
    {
      "name": "warm-glass",
      "pbrMetallicRoughness": {
        "baseColorFactor": [
          0.95,
          0.82,
          0.56,
          0.84
        ],
        "metallicFactor": 0.02,
        "roughnessFactor": 0.16
      },
      "emissiveFactor": [
        0.92,
        0.7,
        0.34
      ],
      "alphaMode": "BLEND"
    }
  ],
  "buffers": [
    {
      "uri": "data:application/octet-stream;base64,",
      "byteLength": 295308
    }
  ],
  "bufferViews": [
    {
      "buffer": 0,
      "byteOffset": 0,
      "byteLength": 7344,
      "target": 34962
    },
    {
      "buffer": 0,
      "byteOffset": 7344,
      "byteLength": 7344,
      "target": 34962
    },
    {
      "buffer": 0,
      "byteOffset": 14688,
      "byteLength": 1224,
      "target": 34963
    },
    {
      "buffer": 0,
      "byteOffset": 15912,
      "byteLength": 64512,
      "target": 34962
    },
    {
      "buffer": 0,
      "byteOffset": 80424,
      "byteLength": 64512,
      "target": 34962
    },
    {
      "buffer": 0,
      "byteOffset": 144936,
      "byteLength": 10752,
      "target": 34963
    },
    {
      "buffer": 0,
      "byteOffset": 155688,
      "byteLength": 648,
      "target": 34962
    },
    {
      "buffer": 0,
      "byteOffset": 156336,
      "byteLength": 648,
      "target": 34962
    },
    {
      "buffer": 0,
      "byteOffset": 156984,
      "byteLength": 108,
      "target": 34963
    },
    {
      "buffer": 0,
      "byteOffset": 157092,
      "byteLength": 1728,
      "target": 34962
    },
    {
      "buffer": 0,
      "byteOffset": 158820,
      "byteLength": 1728,
      "target": 34962
    },
    {
      "buffer": 0,
      "byteOffset": 160548,
      "byteLength": 288,
      "target": 34963
    },
    {
      "buffer": 0,
      "byteOffset": 160836,
      "byteLength": 59904,
      "target": 34962
    },
    {
      "buffer": 0,
      "byteOffset": 220740,
      "byteLength": 59904,
      "target": 34962
    },
    {
      "buffer": 0,
      "byteOffset": 280644,
      "byteLength": 9984,
      "target": 34963
    },
    {
      "buffer": 0,
      "byteOffset": 290628,
      "byteLength": 2160,
      "target": 34962
    },
    {
      "buffer": 0,
      "byteOffset": 292788,
      "byteLength": 2160,
      "target": 34962
    },
    {
      "buffer": 0,
      "byteOffset": 294948,
      "byteLength": 360,
      "target": 34963
    }
  ],
  "accessors": [
    {
      "bufferView": 0,
      "byteOffset": 0,
      "componentType": 5126,
      "count": 612,
      "type": "VEC3",
      "min": [
        -0.98,
        -0.68,
        -2.9
      ],
      "max": [
        0.98,
        0.72,
        2.6
      ]
    },
    {
      "bufferView": 1,
      "byteOffset": 0,
      "componentType": 5126,
      "count": 612,
      "type": "VEC3"
    },
    {
      "bufferView": 2,
      "byteOffset": 0,
      "componentType": 5123,
      "count": 612,
      "type": "SCALAR",
      "min": [
        0
      ],
      "max": [
        611
      ]
    },
    {
      "bufferView": 3,
      "byteOffset": 0,
      "componentType": 5126,
      "count": 5376,
      "type": "VEC3",
      "min": [
        -0.98,
        0.48,
        -2.9
      ],
      "max": [
        0.98,
        1.1,
        2.6
      ]
    },
    {
      "bufferView": 4,
      "byteOffset": 0,
      "componentType": 5126,
      "count": 5376,
      "type": "VEC3"
    },
    {
      "bufferView": 5,
      "byteOffset": 0,
      "componentType": 5123,
      "count": 5376,
      "type": "SCALAR",
      "min": [
        0
      ],
      "max": [
        5375
      ]
    },
    {
      "bufferView": 6,
      "byteOffset": 0,
      "componentType": 5126,
      "count": 54,
      "type": "VEC3",
      "min": [
        -0.7,
        0.72,
        -0.92
      ],
      "max": [
        0.7,
        1.86,
        0.98
      ]
    },
    {
      "bufferView": 7,
      "byteOffset": 0,
      "componentType": 5126,
      "count": 54,
      "type": "VEC3"
    },
    {
      "bufferView": 8,
      "byteOffset": 0,
      "componentType": 5123,
      "count": 54,
      "type": "SCALAR",
      "min": [
        0
      ],
      "max": [
        53
      ]
    },
    {
      "bufferView": 9,
      "byteOffset": 0,
      "componentType": 5126,
      "count": 144,
      "type": "VEC3",
      "min": [
        -0.64,
        1,
        -0.62
      ],
      "max": [
        0.64,
        1.3,
        0.52
      ]
    },
    {
      "bufferView": 10,
      "byteOffset": 0,
      "componentType": 5126,
      "count": 144,
      "type": "VEC3"
    },
    {
      "bufferView": 11,
      "byteOffset": 0,
      "componentType": 5123,
      "count": 144,
      "type": "SCALAR",
      "min": [
        0
      ],
      "max": [
        143
      ]
    },
    {
      "bufferView": 12,
      "byteOffset": 0,
      "componentType": 5126,
      "count": 4992,
      "type": "VEC3",
      "min": [
        -0.9,
        0.76,
        -2.2533259006610185
      ],
      "max": [
        0.9,
        2.5,
        2.2533259006610185
      ]
    },
    {
      "bufferView": 13,
      "byteOffset": 0,
      "componentType": 5126,
      "count": 4992,
      "type": "VEC3"
    },
    {
      "bufferView": 14,
      "byteOffset": 0,
      "componentType": 5123,
      "count": 4992,
      "type": "SCALAR",
      "min": [
        0
      ],
      "max": [
        4991
      ]
    },
    {
      "bufferView": 15,
      "byteOffset": 0,
      "componentType": 5126,
      "count": 180,
      "type": "VEC3",
      "min": [
        0.38,
        0.93,
        1.1199999999999999
      ],
      "max": [
        0.5,
        1.11,
        1.24
      ]
    },
    {
      "bufferView": 16,
      "byteOffset": 0,
      "componentType": 5126,
      "count": 180,
      "type": "VEC3"
    },
    {
      "bufferView": 17,
      "byteOffset": 0,
      "componentType": 5123,
      "count": 180,
      "type": "SCALAR",
      "min": [
        0
      ],
      "max": [
        179
      ]
    }
  ]
}
