{
  "asset": {
    "version": "2.0",
    "generator": "@plasius/gpu-shared showcase asset generator"
  },
  "scene": 0,
  "scenes": [
    {
      "nodes": [
        0
      ]
    }
  ],
  "nodes": [
    {
      "name": "fishing-boat",
      "children": [
        1,
        2,
        3
      ],
      "extras": {
        "physics": {
          "shape": "box",
          "halfExtents": [
            1.3499999999999999,
            4.2,
            3.7
          ],
          "mass": 1800,
          "waterline": 0.34,
          "linearDamping": 0.05,
          "angularDamping": 0.1,
          "restitution": 0.15
        }
      }
    },
    {
      "name": "fishing-boat-hull",
      "mesh": 0
    },
    {
      "name": "fishing-boat-wheelhouse",
      "mesh": 1
    },
    {
      "name": "fishing-boat-fishing-gantry",
      "mesh": 2
    }
  ],
  "meshes": [
    {
      "name": "fishing-boat-hull",
      "primitives": [
        {
          "attributes": {
            "POSITION": 0,
            "NORMAL": 1
          },
          "indices": 2,
          "material": 0
        },
        {
          "attributes": {
            "POSITION": 3,
            "NORMAL": 4
          },
          "indices": 5,
          "material": 1
        }
      ]
    },
    {
      "name": "fishing-boat-wheelhouse",
      "primitives": [
        {
          "attributes": {
            "POSITION": 6,
            "NORMAL": 7
          },
          "indices": 8,
          "material": 2
        },
        {
          "attributes": {
            "POSITION": 9,
            "NORMAL": 10
          },
          "indices": 11,
          "material": 3
        },
        {
          "attributes": {
            "POSITION": 12,
            "NORMAL": 13
          },
          "indices": 14,
          "material": 4
        }
      ]
    },
    {
      "name": "fishing-boat-fishing-gantry",
      "primitives": [
        {
          "attributes": {
            "POSITION": 15,
            "NORMAL": 16
          },
          "indices": 17,
          "material": 4
        },
        {
          "attributes": {
            "POSITION": 18,
            "NORMAL": 19
          },
          "indices": 20,
          "material": 5
        },
        {
          "attributes": {
            "POSITION": 21,
            "NORMAL": 22
          },
          "indices": 23,
          "material": 6
        }
      ]
    }
  ],
  "materials": [
    {
      "name": "painted-workboat-hull",
      "pbrMetallicRoughness": {
        "baseColorFactor": [
          0.32,
          0.38,
          0.4,
          1
        ],
        "metallicFactor": 0,
        "roughnessFactor": 0.8
      }
    },
    {
      "name": "deck-plank",
      "pbrMetallicRoughness": {
        "baseColorFactor": [
          0.31,
          0.2,
          0.095,
          1
        ],
        "metallicFactor": 0.02,
        "roughnessFactor": 0.9
      }
    },
    {
      "name": "paint-white",
      "pbrMetallicRoughness": {
        "baseColorFactor": [
          0.84,
          0.84,
          0.82,
          1
        ],
        "metallicFactor": 0,
        "roughnessFactor": 0.88
      }
    },
    {
      "name": "warehouse-glazing",
      "pbrMetallicRoughness": {
        "baseColorFactor": [
          0.028,
          0.055,
          0.069,
          1
        ],
        "metallicFactor": 0,
        "roughnessFactor": 0.22
      }
    },
    {
      "name": "metal-dark",
      "pbrMetallicRoughness": {
        "baseColorFactor": [
          0.21,
          0.22,
          0.24,
          1
        ],
        "metallicFactor": 0.84,
        "roughnessFactor": 0.34
      }
    },
    {
      "name": "crate-wood",
      "pbrMetallicRoughness": {
        "baseColorFactor": [
          0.44,
          0.31,
          0.17,
          1
        ],
        "metallicFactor": 0.02,
        "roughnessFactor": 0.92
      }
    },
    {
      "name": "rigging-rope",
      "pbrMetallicRoughness": {
        "baseColorFactor": [
          0.055,
          0.038,
          0.023,
          1
        ],
        "metallicFactor": 0,
        "roughnessFactor": 0.96
      }
    }
  ],
  "buffers": [
    {
      "uri": "data:application/octet-stream;base64,",
      "byteLength": 203112
    }
  ],
  "bufferViews": [
    {
      "buffer": 0,
      "byteOffset": 0,
      "byteLength": 7344,
      "target": 34962
    },
    {
      "buffer": 0,
      "byteOffset": 7344,
      "byteLength": 7344,
      "target": 34962
    },
    {
      "buffer": 0,
      "byteOffset": 14688,
      "byteLength": 1224,
      "target": 34963
    },
    {
      "buffer": 0,
      "byteOffset": 15912,
      "byteLength": 2304,
      "target": 34962
    },
    {
      "buffer": 0,
      "byteOffset": 18216,
      "byteLength": 2304,
      "target": 34962
    },
    {
      "buffer": 0,
      "byteOffset": 20520,
      "byteLength": 384,
      "target": 34963
    },
    {
      "buffer": 0,
      "byteOffset": 20904,
      "byteLength": 432,
      "target": 34962
    },
    {
      "buffer": 0,
      "byteOffset": 21336,
      "byteLength": 432,
      "target": 34962
    },
    {
      "buffer": 0,
      "byteOffset": 21768,
      "byteLength": 72,
      "target": 34963
    },
    {
      "buffer": 0,
      "byteOffset": 21840,
      "byteLength": 3456,
      "target": 34962
    },
    {
      "buffer": 0,
      "byteOffset": 25296,
      "byteLength": 3456,
      "target": 34962
    },
    {
      "buffer": 0,
      "byteOffset": 28752,
      "byteLength": 576,
      "target": 34963
    },
    {
      "buffer": 0,
      "byteOffset": 29328,
      "byteLength": 12528,
      "target": 34962
    },
    {
      "buffer": 0,
      "byteOffset": 41856,
      "byteLength": 12528,
      "target": 34962
    },
    {
      "buffer": 0,
      "byteOffset": 54384,
      "byteLength": 2088,
      "target": 34963
    },
    {
      "buffer": 0,
      "byteOffset": 56472,
      "byteLength": 3744,
      "target": 34962
    },
    {
      "buffer": 0,
      "byteOffset": 60216,
      "byteLength": 3744,
      "target": 34962
    },
    {
      "buffer": 0,
      "byteOffset": 63960,
      "byteLength": 624,
      "target": 34963
    },
    {
      "buffer": 0,
      "byteOffset": 64584,
      "byteLength": 1728,
      "target": 34962
    },
    {
      "buffer": 0,
      "byteOffset": 66312,
      "byteLength": 1728,
      "target": 34962
    },
    {
      "buffer": 0,
      "byteOffset": 68040,
      "byteLength": 288,
      "target": 34963
    },
    {
      "buffer": 0,
      "byteOffset": 68328,
      "byteLength": 62208,
      "target": 34962
    },
    {
      "buffer": 0,
      "byteOffset": 130536,
      "byteLength": 62208,
      "target": 34962
    },
    {
      "buffer": 0,
      "byteOffset": 192744,
      "byteLength": 10368,
      "target": 34963
    }
  ],
  "accessors": [
    {
      "bufferView": 0,
      "byteOffset": 0,
      "componentType": 5126,
      "count": 612,
      "type": "VEC3",
      "min": [
        -1.16823828125,
        -0.6859375,
        -3.7
      ],
      "max": [
        1.16823828125,
        0.85,
        3.7
      ]
    },
    {
      "bufferView": 1,
      "byteOffset": 0,
      "componentType": 5126,
      "count": 612,
      "type": "VEC3"
    },
    {
      "bufferView": 2,
      "byteOffset": 0,
      "componentType": 5123,
      "count": 612,
      "type": "SCALAR",
      "min": [
        0
      ],
      "max": [
        611
      ]
    },
    {
      "bufferView": 3,
      "byteOffset": 0,
      "componentType": 5126,
      "count": 192,
      "type": "VEC3",
      "min": [
        -1.16823828125,
        0.65,
        -3.7
      ],
      "max": [
        1.16823828125,
        0.85,
        3.7
      ]
    },
    {
      "bufferView": 4,
      "byteOffset": 0,
      "componentType": 5126,
      "count": 192,
      "type": "VEC3"
    },
    {
      "bufferView": 5,
      "byteOffset": 0,
      "componentType": 5123,
      "count": 192,
      "type": "SCALAR",
      "min": [
        0
      ],
      "max": [
        191
      ]
    },
    {
      "bufferView": 6,
      "byteOffset": 0,
      "componentType": 5126,
      "count": 36,
      "type": "VEC3",
      "min": [
        -0.7705,
        0.78,
        0.2300000000000001
      ],
      "max": [
        0.7705,
        2.1799999999999997,
        1.87
      ]
    },
    {
      "bufferView": 7,
      "byteOffset": 0,
      "componentType": 5126,
      "count": 36,
      "type": "VEC3"
    },
    {
      "bufferView": 8,
      "byteOffset": 0,
      "componentType": 5123,
      "count": 36,
      "type": "SCALAR",
      "min": [
        0
      ],
      "max": [
        35
      ]
    },
    {
      "bufferView": 9,
      "byteOffset": 0,
      "componentType": 5126,
      "count": 288,
      "type": "VEC3",
      "min": [
        -0.8045,
        1.7099999999999997,
        0.3500000000000001
      ],
      "max": [
        0.8045,
        2.0599999999999996,
        1.9100000000000001
      ]
    },
    {
      "bufferView": 10,
      "byteOffset": 0,
      "componentType": 5126,
      "count": 288,
      "type": "VEC3"
    },
    {
      "bufferView": 11,
      "byteOffset": 0,
      "componentType": 5123,
      "count": 288,
      "type": "SCALAR",
      "min": [
        0
      ],
      "max": [
        287
      ]
    },
    {
      "bufferView": 12,
      "byteOffset": 0,
      "componentType": 5126,
      "count": 1044,
      "type": "VEC3",
      "min": [
        -1.0546955032235479,
        0.75,
        -2.9870000000000005
      ],
      "max": [
        1.0546955032235477,
        3.505,
        2.9870000000000005
      ]
    },
    {
      "bufferView": 13,
      "byteOffset": 0,
      "componentType": 5126,
      "count": 1044,
      "type": "VEC3"
    },
    {
      "bufferView": 14,
      "byteOffset": 0,
      "componentType": 5123,
      "count": 1044,
      "type": "SCALAR",
      "min": [
        0
      ],
      "max": [
        1043
      ]
    },
    {
      "bufferView": 15,
      "byteOffset": 0,
      "componentType": 5126,
      "count": 312,
      "type": "VEC3",
      "min": [
        -1.15,
        0.76,
        -1.7149999999999999
      ],
      "max": [
        1.15,
        3.1562916512459886,
        -0.45607689879511676
      ]
    },
    {
      "bufferView": 16,
      "byteOffset": 0,
      "componentType": 5126,
      "count": 312,
      "type": "VEC3"
    },
    {
      "bufferView": 17,
      "byteOffset": 0,
      "componentType": 5123,
      "count": 312,
      "type": "SCALAR",
      "min": [
        0
      ],
      "max": [
        311
      ]
    },
    {
      "bufferView": 18,
      "byteOffset": 0,
      "componentType": 5126,
      "count": 144,
      "type": "VEC3",
      "min": [
        -0.6,
        0.76,
        -2.7
      ],
      "max": [
        0.6,
        1.05,
        -1.25
      ]
    },
    {
      "bufferView": 19,
      "byteOffset": 0,
      "componentType": 5126,
      "count": 144,
      "type": "VEC3"
    },
    {
      "bufferView": 20,
      "byteOffset": 0,
      "componentType": 5123,
      "count": 144,
      "type": "SCALAR",
      "min": [
        0
      ],
      "max": [
        143
      ]
    },
    {
      "bufferView": 21,
      "byteOffset": 0,
      "componentType": 5126,
      "count": 5184,
      "type": "VEC3",
      "min": [
        -1.049312817321368,
        0.8413349378259264,
        -2.9649972229935893
      ],
      "max": [
        1.049312817321368,
        3.1086650621740737,
        2.96335364580648
      ]
    },
    {
      "bufferView": 22,
      "byteOffset": 0,
      "componentType": 5126,
      "count": 5184,
      "type": "VEC3"
    },
    {
      "bufferView": 23,
      "byteOffset": 0,
      "componentType": 5123,
      "count": 5184,
      "type": "SCALAR",
      "min": [
        0
      ],
      "max": [
        5183
      ]
    }
  ]
}
