{
  "asset": {
    "version": "2.0",
    "generator": "@plasius/gpu-shared showcase asset generator"
  },
  "scene": 0,
  "scenes": [
    {
      "nodes": [
        0
      ]
    }
  ],
  "nodes": [
    {
      "name": "harbor-dock",
      "children": [
        1,
        2
      ]
    },
    {
      "name": "harbor-dock-main",
      "mesh": 0
    },
    {
      "name": "harbor-dock-warehouse",
      "mesh": 1,
      "translation": [
        0,
        0,
        0
      ]
    }
  ],
  "meshes": [
    {
      "name": "harbor-dock-main",
      "primitives": [
        {
          "attributes": {
            "POSITION": 0,
            "NORMAL": 1
          },
          "indices": 2,
          "material": 0
        },
        {
          "attributes": {
            "POSITION": 3,
            "NORMAL": 4
          },
          "indices": 5,
          "material": 1
        },
        {
          "attributes": {
            "POSITION": 6,
            "NORMAL": 7
          },
          "indices": 8,
          "material": 2
        },
        {
          "attributes": {
            "POSITION": 9,
            "NORMAL": 10
          },
          "indices": 11,
          "material": 3
        }
      ]
    },
    {
      "name": "harbor-dock-warehouse",
      "primitives": [
        {
          "attributes": {
            "POSITION": 12,
            "NORMAL": 13
          },
          "indices": 14,
          "material": 4
        },
        {
          "attributes": {
            "POSITION": 15,
            "NORMAL": 16
          },
          "indices": 17,
          "material": 5
        },
        {
          "attributes": {
            "POSITION": 18,
            "NORMAL": 19
          },
          "indices": 20,
          "material": 6
        },
        {
          "attributes": {
            "POSITION": 21,
            "NORMAL": 22
          },
          "indices": 23,
          "material": 7
        }
      ]
    }
  ],
  "materials": [
    {
      "name": "concrete",
      "pbrMetallicRoughness": {
        "baseColorFactor": [
          0.56,
          0.55,
          0.53,
          1
        ],
        "metallicFactor": 0,
        "roughnessFactor": 0.95
      }
    },
    {
      "name": "jetty-timber",
      "pbrMetallicRoughness": {
        "baseColorFactor": [
          0.4,
          0.31,
          0.21,
          1
        ],
        "metallicFactor": 0.03,
        "roughnessFactor": 0.9
      }
    },
    {
      "name": "dock-metal",
      "pbrMetallicRoughness": {
        "baseColorFactor": [
          0.24,
          0.26,
          0.29,
          1
        ],
        "metallicFactor": 0.88,
        "roughnessFactor": 0.26
      }
    },
    {
      "name": "crate-wood",
      "pbrMetallicRoughness": {
        "baseColorFactor": [
          0.44,
          0.31,
          0.17,
          1
        ],
        "metallicFactor": 0.02,
        "roughnessFactor": 0.92
      }
    },
    {
      "name": "warehouse-plaster",
      "pbrMetallicRoughness": {
        "baseColorFactor": [
          0.76,
          0.74,
          0.69,
          1
        ],
        "metallicFactor": 0,
        "roughnessFactor": 0.92
      }
    },
    {
      "name": "roof-tiles",
      "pbrMetallicRoughness": {
        "baseColorFactor": [
          0.31,
          0.19,
          0.17,
          1
        ],
        "metallicFactor": 0.04,
        "roughnessFactor": 0.88
      }
    },
    {
      "name": "window-glass",
      "pbrMetallicRoughness": {
        "baseColorFactor": [
          0.49,
          0.66,
          0.78,
          0.72
        ],
        "metallicFactor": 0.04,
        "roughnessFactor": 0.08
      },
      "emissiveFactor": [
        0.18,
        0.24,
        0.28
      ],
      "alphaMode": "BLEND"
    },
    {
      "name": "warm-glass",
      "pbrMetallicRoughness": {
        "baseColorFactor": [
          0.95,
          0.82,
          0.56,
          0.84
        ],
        "metallicFactor": 0.02,
        "roughnessFactor": 0.16
      },
      "emissiveFactor": [
        0.92,
        0.7,
        0.34
      ],
      "alphaMode": "BLEND"
    }
  ],
  "buffers": [
    {
      "uri": "data:application/octet-stream;base64,",
      "byteLength": 40092
    }
  ],
  "bufferViews": [
    {
      "buffer": 0,
      "byteOffset": 0,
      "byteLength": 432,
      "target": 34962
    },
    {
      "buffer": 0,
      "byteOffset": 432,
      "byteLength": 432,
      "target": 34962
    },
    {
      "buffer": 0,
      "byteOffset": 864,
      "byteLength": 72,
      "target": 34963
    },
    {
      "buffer": 0,
      "byteOffset": 936,
      "byteLength": 6912,
      "target": 34962
    },
    {
      "buffer": 0,
      "byteOffset": 7848,
      "byteLength": 6912,
      "target": 34962
    },
    {
      "buffer": 0,
      "byteOffset": 14760,
      "byteLength": 1152,
      "target": 34963
    },
    {
      "buffer": 0,
      "byteOffset": 15912,
      "byteLength": 6192,
      "target": 34962
    },
    {
      "buffer": 0,
      "byteOffset": 22104,
      "byteLength": 6192,
      "target": 34962
    },
    {
      "buffer": 0,
      "byteOffset": 28296,
      "byteLength": 1032,
      "target": 34963
    },
    {
      "buffer": 0,
      "byteOffset": 29328,
      "byteLength": 1296,
      "target": 34962
    },
    {
      "buffer": 0,
      "byteOffset": 30624,
      "byteLength": 1296,
      "target": 34962
    },
    {
      "buffer": 0,
      "byteOffset": 31920,
      "byteLength": 216,
      "target": 34963
    },
    {
      "buffer": 0,
      "byteOffset": 32136,
      "byteLength": 432,
      "target": 34962
    },
    {
      "buffer": 0,
      "byteOffset": 32568,
      "byteLength": 432,
      "target": 34962
    },
    {
      "buffer": 0,
      "byteOffset": 33000,
      "byteLength": 72,
      "target": 34963
    },
    {
      "buffer": 0,
      "byteOffset": 33072,
      "byteLength": 216,
      "target": 34962
    },
    {
      "buffer": 0,
      "byteOffset": 33288,
      "byteLength": 216,
      "target": 34962
    },
    {
      "buffer": 0,
      "byteOffset": 33504,
      "byteLength": 36,
      "target": 34963
    },
    {
      "buffer": 0,
      "byteOffset": 33540,
      "byteLength": 864,
      "target": 34962
    },
    {
      "buffer": 0,
      "byteOffset": 34404,
      "byteLength": 864,
      "target": 34962
    },
    {
      "buffer": 0,
      "byteOffset": 35268,
      "byteLength": 144,
      "target": 34963
    },
    {
      "buffer": 0,
      "byteOffset": 35412,
      "byteLength": 2160,
      "target": 34962
    },
    {
      "buffer": 0,
      "byteOffset": 37572,
      "byteLength": 2160,
      "target": 34962
    },
    {
      "buffer": 0,
      "byteOffset": 39732,
      "byteLength": 360,
      "target": 34963
    }
  ],
  "accessors": [
    {
      "bufferView": 0,
      "byteOffset": 0,
      "componentType": 5126,
      "count": 36,
      "type": "VEC3",
      "min": [
        -7.2,
        -0.9,
        -2.4
      ],
      "max": [
        1.2,
        0.3,
        2.2
      ]
    },
    {
      "bufferView": 1,
      "byteOffset": 0,
      "componentType": 5126,
      "count": 36,
      "type": "VEC3"
    },
    {
      "bufferView": 2,
      "byteOffset": 0,
      "componentType": 5123,
      "count": 36,
      "type": "SCALAR",
      "min": [
        0
      ],
      "max": [
        35
      ]
    },
    {
      "bufferView": 3,
      "byteOffset": 0,
      "componentType": 5126,
      "count": 576,
      "type": "VEC3",
      "min": [
        -4.6,
        -1.42,
        -1.55
      ],
      "max": [
        7.4,
        0.44,
        1.55
      ]
    },
    {
      "bufferView": 4,
      "byteOffset": 0,
      "componentType": 5126,
      "count": 576,
      "type": "VEC3"
    },
    {
      "bufferView": 5,
      "byteOffset": 0,
      "componentType": 5123,
      "count": 576,
      "type": "SCALAR",
      "min": [
        0
      ],
      "max": [
        575
      ]
    },
    {
      "bufferView": 6,
      "byteOffset": 0,
      "componentType": 5126,
      "count": 516,
      "type": "VEC3",
      "min": [
        0.18,
        0.42,
        -0.9981769303614649
      ],
      "max": [
        5.58,
        2.32,
        0.9981769303614649
      ]
    },
    {
      "bufferView": 7,
      "byteOffset": 0,
      "componentType": 5126,
      "count": 516,
      "type": "VEC3"
    },
    {
      "bufferView": 8,
      "byteOffset": 0,
      "componentType": 5123,
      "count": 516,
      "type": "SCALAR",
      "min": [
        0
      ],
      "max": [
        515
      ]
    },
    {
      "bufferView": 9,
      "byteOffset": 0,
      "componentType": 5126,
      "count": 108,
      "type": "VEC3",
      "min": [
        1.2,
        0.44,
        -0.88
      ],
      "max": [
        2.68,
        1.18,
        0.82
      ]
    },
    {
      "bufferView": 10,
      "byteOffset": 0,
      "componentType": 5126,
      "count": 108,
      "type": "VEC3"
    },
    {
      "bufferView": 11,
      "byteOffset": 0,
      "componentType": 5123,
      "count": 108,
      "type": "SCALAR",
      "min": [
        0
      ],
      "max": [
        107
      ]
    },
    {
      "bufferView": 12,
      "byteOffset": 0,
      "componentType": 5126,
      "count": 36,
      "type": "VEC3",
      "min": [
        -6.3,
        0.3,
        -1.7
      ],
      "max": [
        -2.2,
        2.4,
        1.3
      ]
    },
    {
      "bufferView": 13,
      "byteOffset": 0,
      "componentType": 5126,
      "count": 36,
      "type": "VEC3"
    },
    {
      "bufferView": 14,
      "byteOffset": 0,
      "componentType": 5123,
      "count": 36,
      "type": "SCALAR",
      "min": [
        0
      ],
      "max": [
        35
      ]
    },
    {
      "bufferView": 15,
      "byteOffset": 0,
      "componentType": 5126,
      "count": 18,
      "type": "VEC3",
      "min": [
        -6.6,
        2.4,
        -1.95
      ],
      "max": [
        0,
        3.26,
        1.55
      ]
    },
    {
      "bufferView": 16,
      "byteOffset": 0,
      "componentType": 5126,
      "count": 18,
      "type": "VEC3"
    },
    {
      "bufferView": 17,
      "byteOffset": 0,
      "componentType": 5123,
      "count": 18,
      "type": "SCALAR",
      "min": [
        0
      ],
      "max": [
        17
      ]
    },
    {
      "bufferView": 18,
      "byteOffset": 0,
      "componentType": 5126,
      "count": 72,
      "type": "VEC3",
      "min": [
        -5.84,
        1.06,
        1.32
      ],
      "max": [
        -2.66,
        1.78,
        1.46
      ]
    },
    {
      "bufferView": 19,
      "byteOffset": 0,
      "componentType": 5126,
      "count": 72,
      "type": "VEC3"
    },
    {
      "bufferView": 20,
      "byteOffset": 0,
      "componentType": 5123,
      "count": 72,
      "type": "SCALAR",
      "min": [
        0
      ],
      "max": [
        71
      ]
    },
    {
      "bufferView": 21,
      "byteOffset": 0,
      "componentType": 5126,
      "count": 180,
      "type": "VEC3",
      "min": [
        -4.319999999999999,
        2.71,
        0.9400000000000001
      ],
      "max": [
        -4.04,
        2.9299999999999997,
        1.2200000000000002
      ]
    },
    {
      "bufferView": 22,
      "byteOffset": 0,
      "componentType": 5126,
      "count": 180,
      "type": "VEC3"
    },
    {
      "bufferView": 23,
      "byteOffset": 0,
      "componentType": 5123,
      "count": 180,
      "type": "SCALAR",
      "min": [
        0
      ],
      "max": [
        179
      ]
    }
  ]
}
