{
  "asset": {
    "version": "2.0",
    "generator": "@plasius/gpu-shared showcase asset generator"
  },
  "scene": 0,
  "scenes": [
    {
      "nodes": [
        0
      ]
    }
  ],
  "nodes": [
    {
      "name": "harbour-berths",
      "children": [
        1,
        2
      ]
    },
    {
      "name": "harbour-berths-quay",
      "mesh": 0
    },
    {
      "name": "harbour-berths-fittings",
      "mesh": 1
    }
  ],
  "meshes": [
    {
      "name": "harbour-berths-quay",
      "primitives": [
        {
          "attributes": {
            "POSITION": 0,
            "NORMAL": 1
          },
          "indices": 2,
          "material": 0
        },
        {
          "attributes": {
            "POSITION": 3,
            "NORMAL": 4
          },
          "indices": 5,
          "material": 1
        },
        {
          "attributes": {
            "POSITION": 6,
            "NORMAL": 7
          },
          "indices": 8,
          "material": 2
        }
      ]
    },
    {
      "name": "harbour-berths-fittings",
      "primitives": [
        {
          "attributes": {
            "POSITION": 9,
            "NORMAL": 10
          },
          "indices": 11,
          "material": 3
        },
        {
          "attributes": {
            "POSITION": 12,
            "NORMAL": 13
          },
          "indices": 14,
          "material": 4
        },
        {
          "attributes": {
            "POSITION": 15,
            "NORMAL": 16
          },
          "indices": 17,
          "material": 5
        }
      ]
    }
  ],
  "materials": [
    {
      "name": "quay-stone",
      "pbrMetallicRoughness": {
        "baseColorFactor": [
          0.28,
          0.29,
          0.27,
          1
        ],
        "metallicFactor": 0,
        "roughnessFactor": 0.96
      }
    },
    {
      "name": "quay-stone-warm",
      "pbrMetallicRoughness": {
        "baseColorFactor": [
          0.34,
          0.32,
          0.27,
          1
        ],
        "metallicFactor": 0,
        "roughnessFactor": 0.98
      }
    },
    {
      "name": "concrete",
      "pbrMetallicRoughness": {
        "baseColorFactor": [
          0.56,
          0.55,
          0.53,
          1
        ],
        "metallicFactor": 0,
        "roughnessFactor": 0.95
      }
    },
    {
      "name": "dock-metal",
      "pbrMetallicRoughness": {
        "baseColorFactor": [
          0.24,
          0.26,
          0.29,
          1
        ],
        "metallicFactor": 0.88,
        "roughnessFactor": 0.26
      }
    },
    {
      "name": "jetty-timber",
      "pbrMetallicRoughness": {
        "baseColorFactor": [
          0.4,
          0.31,
          0.21,
          1
        ],
        "metallicFactor": 0.03,
        "roughnessFactor": 0.9
      }
    },
    {
      "name": "crate-wood",
      "pbrMetallicRoughness": {
        "baseColorFactor": [
          0.44,
          0.31,
          0.17,
          1
        ],
        "metallicFactor": 0.02,
        "roughnessFactor": 0.92
      }
    }
  ],
  "buffers": [
    {
      "uri": "data:application/octet-stream;base64,",
      "byteLength": 313872
    }
  ],
  "bufferViews": [
    {
      "buffer": 0,
      "byteOffset": 0,
      "byteLength": 43200,
      "target": 34962
    },
    {
      "buffer": 0,
      "byteOffset": 43200,
      "byteLength": 43200,
      "target": 34962
    },
    {
      "buffer": 0,
      "byteOffset": 86400,
      "byteLength": 7200,
      "target": 34963
    },
    {
      "buffer": 0,
      "byteOffset": 93600,
      "byteLength": 62640,
      "target": 34962
    },
    {
      "buffer": 0,
      "byteOffset": 156240,
      "byteLength": 62640,
      "target": 34962
    },
    {
      "buffer": 0,
      "byteOffset": 218880,
      "byteLength": 10440,
      "target": 34963
    },
    {
      "buffer": 0,
      "byteOffset": 229320,
      "byteLength": 432,
      "target": 34962
    },
    {
      "buffer": 0,
      "byteOffset": 229752,
      "byteLength": 432,
      "target": 34962
    },
    {
      "buffer": 0,
      "byteOffset": 230184,
      "byteLength": 72,
      "target": 34963
    },
    {
      "buffer": 0,
      "byteOffset": 230256,
      "byteLength": 29952,
      "target": 34962
    },
    {
      "buffer": 0,
      "byteOffset": 260208,
      "byteLength": 29952,
      "target": 34962
    },
    {
      "buffer": 0,
      "byteOffset": 290160,
      "byteLength": 4992,
      "target": 34963
    },
    {
      "buffer": 0,
      "byteOffset": 295152,
      "byteLength": 3456,
      "target": 34962
    },
    {
      "buffer": 0,
      "byteOffset": 298608,
      "byteLength": 3456,
      "target": 34962
    },
    {
      "buffer": 0,
      "byteOffset": 302064,
      "byteLength": 576,
      "target": 34963
    },
    {
      "buffer": 0,
      "byteOffset": 302640,
      "byteLength": 5184,
      "target": 34962
    },
    {
      "buffer": 0,
      "byteOffset": 307824,
      "byteLength": 5184,
      "target": 34962
    },
    {
      "buffer": 0,
      "byteOffset": 313008,
      "byteLength": 864,
      "target": 34963
    }
  ],
  "accessors": [
    {
      "bufferView": 0,
      "byteOffset": 0,
      "componentType": 5126,
      "count": 3600,
      "type": "VEC3",
      "min": [
        -30,
        -1.1,
        3.81
      ],
      "max": [
        29.979999999999976,
        0.08000000000000007,
        3.98
      ]
    },
    {
      "bufferView": 1,
      "byteOffset": 0,
      "componentType": 5126,
      "count": 3600,
      "type": "VEC3"
    },
    {
      "bufferView": 2,
      "byteOffset": 0,
      "componentType": 5123,
      "count": 3600,
      "type": "SCALAR",
      "min": [
        0
      ],
      "max": [
        3599
      ]
    },
    {
      "bufferView": 3,
      "byteOffset": 0,
      "componentType": 5126,
      "count": 5220,
      "type": "VEC3",
      "min": [
        -30,
        -0.7000000000000001,
        3.25
      ],
      "max": [
        30,
        0.68,
        4.02
      ]
    },
    {
      "bufferView": 4,
      "byteOffset": 0,
      "componentType": 5126,
      "count": 5220,
      "type": "VEC3"
    },
    {
      "bufferView": 5,
      "byteOffset": 0,
      "componentType": 5123,
      "count": 5220,
      "type": "SCALAR",
      "min": [
        0
      ],
      "max": [
        5219
      ]
    },
    {
      "bufferView": 6,
      "byteOffset": 0,
      "componentType": 5126,
      "count": 36,
      "type": "VEC3",
      "min": [
        -30,
        -1.8,
        -3.5
      ],
      "max": [
        30,
        0.5,
        3.82
      ]
    },
    {
      "bufferView": 7,
      "byteOffset": 0,
      "componentType": 5126,
      "count": 36,
      "type": "VEC3"
    },
    {
      "bufferView": 8,
      "byteOffset": 0,
      "componentType": 5123,
      "count": 36,
      "type": "SCALAR",
      "min": [
        0
      ],
      "max": [
        35
      ]
    },
    {
      "bufferView": 9,
      "byteOffset": 0,
      "componentType": 5126,
      "count": 2496,
      "type": "VEC3",
      "min": [
        -24.02,
        -0.85,
        3.23
      ],
      "max": [
        26.02,
        1.105,
        4.065
      ]
    },
    {
      "bufferView": 10,
      "byteOffset": 0,
      "componentType": 5126,
      "count": 2496,
      "type": "VEC3"
    },
    {
      "bufferView": 11,
      "byteOffset": 0,
      "componentType": 5123,
      "count": 2496,
      "type": "SCALAR",
      "min": [
        0
      ],
      "max": [
        2495
      ]
    },
    {
      "bufferView": 12,
      "byteOffset": 0,
      "componentType": 5126,
      "count": 288,
      "type": "VEC3",
      "min": [
        -23.91,
        -0.75,
        4
      ],
      "max": [
        25.91,
        0.48,
        4.18
      ]
    },
    {
      "bufferView": 13,
      "byteOffset": 0,
      "componentType": 5126,
      "count": 288,
      "type": "VEC3"
    },
    {
      "bufferView": 14,
      "byteOffset": 0,
      "componentType": 5123,
      "count": 288,
      "type": "SCALAR",
      "min": [
        0
      ],
      "max": [
        287
      ]
    },
    {
      "bufferView": 15,
      "byteOffset": 0,
      "componentType": 5126,
      "count": 432,
      "type": "VEC3",
      "min": [
        -22,
        0.5,
        0.5
      ],
      "max": [
        22.6,
        1.4700000000000002,
        1.3
      ]
    },
    {
      "bufferView": 16,
      "byteOffset": 0,
      "componentType": 5126,
      "count": 432,
      "type": "VEC3"
    },
    {
      "bufferView": 17,
      "byteOffset": 0,
      "componentType": 5123,
      "count": 432,
      "type": "SCALAR",
      "min": [
        0
      ],
      "max": [
        431
      ]
    }
  ]
}
