{
  "asset": {
    "version": "2.0",
    "generator": "@plasius/gpu-shared showcase asset generator"
  },
  "scene": 0,
  "scenes": [
    {
      "nodes": [
        0
      ]
    }
  ],
  "nodes": [
    {
      "name": "lighthouse",
      "children": [
        1,
        2,
        3
      ]
    },
    {
      "name": "lighthouse-tower",
      "mesh": 0
    },
    {
      "name": "lighthouse-gallery-rail",
      "mesh": 1
    },
    {
      "name": "lighthouse-keeper-house",
      "mesh": 2
    }
  ],
  "meshes": [
    {
      "name": "lighthouse-tower",
      "primitives": [
        {
          "attributes": {
            "POSITION": 0,
            "NORMAL": 1
          },
          "indices": 2,
          "material": 0
        },
        {
          "attributes": {
            "POSITION": 3,
            "NORMAL": 4
          },
          "indices": 5,
          "material": 1
        },
        {
          "attributes": {
            "POSITION": 6,
            "NORMAL": 7
          },
          "indices": 8,
          "material": 2
        },
        {
          "attributes": {
            "POSITION": 9,
            "NORMAL": 10
          },
          "indices": 11,
          "material": 3
        },
        {
          "attributes": {
            "POSITION": 12,
            "NORMAL": 13
          },
          "indices": 14,
          "material": 4
        }
      ]
    },
    {
      "name": "lighthouse-gallery-rail",
      "primitives": [
        {
          "attributes": {
            "POSITION": 15,
            "NORMAL": 16
          },
          "indices": 17,
          "material": 3
        }
      ]
    },
    {
      "name": "lighthouse-keeper-house",
      "primitives": [
        {
          "attributes": {
            "POSITION": 18,
            "NORMAL": 19
          },
          "indices": 20,
          "material": 5
        },
        {
          "attributes": {
            "POSITION": 21,
            "NORMAL": 22
          },
          "indices": 23,
          "material": 6
        }
      ]
    }
  ],
  "materials": [
    {
      "name": "paint-white",
      "pbrMetallicRoughness": {
        "baseColorFactor": [
          0.84,
          0.84,
          0.82,
          1
        ],
        "metallicFactor": 0,
        "roughnessFactor": 0.88
      }
    },
    {
      "name": "paint-red",
      "pbrMetallicRoughness": {
        "baseColorFactor": [
          0.67,
          0.12,
          0.1,
          1
        ],
        "metallicFactor": 0.04,
        "roughnessFactor": 0.72
      }
    },
    {
      "name": "stone",
      "pbrMetallicRoughness": {
        "baseColorFactor": [
          0.49,
          0.48,
          0.46,
          1
        ],
        "metallicFactor": 0,
        "roughnessFactor": 0.97
      }
    },
    {
      "name": "metal-dark",
      "pbrMetallicRoughness": {
        "baseColorFactor": [
          0.21,
          0.22,
          0.24,
          1
        ],
        "metallicFactor": 0.84,
        "roughnessFactor": 0.34
      }
    },
    {
      "name": "warm-glass",
      "pbrMetallicRoughness": {
        "baseColorFactor": [
          0.95,
          0.82,
          0.56,
          0.84
        ],
        "metallicFactor": 0.02,
        "roughnessFactor": 0.16
      },
      "emissiveFactor": [
        0.92,
        0.7,
        0.34
      ],
      "alphaMode": "BLEND"
    },
    {
      "name": "roof-tiles",
      "pbrMetallicRoughness": {
        "baseColorFactor": [
          0.31,
          0.19,
          0.17,
          1
        ],
        "metallicFactor": 0.04,
        "roughnessFactor": 0.88
      }
    },
    {
      "name": "window-glass",
      "pbrMetallicRoughness": {
        "baseColorFactor": [
          0.49,
          0.66,
          0.78,
          0.72
        ],
        "metallicFactor": 0.04,
        "roughnessFactor": 0.08
      },
      "emissiveFactor": [
        0.18,
        0.24,
        0.28
      ],
      "alphaMode": "BLEND"
    }
  ],
  "buffers": [
    {
      "uri": "data:application/octet-stream;base64,",
      "byteLength": 291408
    }
  ],
  "bufferViews": [
    {
      "buffer": 0,
      "byteOffset": 0,
      "byteLength": 5616,
      "target": 34962
    },
    {
      "buffer": 0,
      "byteOffset": 5616,
      "byteLength": 5616,
      "target": 34962
    },
    {
      "buffer": 0,
      "byteOffset": 11232,
      "byteLength": 936,
      "target": 34963
    },
    {
      "buffer": 0,
      "byteOffset": 12168,
      "byteLength": 2880,
      "target": 34962
    },
    {
      "buffer": 0,
      "byteOffset": 15048,
      "byteLength": 2880,
      "target": 34962
    },
    {
      "buffer": 0,
      "byteOffset": 17928,
      "byteLength": 480,
      "target": 34963
    },
    {
      "buffer": 0,
      "byteOffset": 18408,
      "byteLength": 6048,
      "target": 34962
    },
    {
      "buffer": 0,
      "byteOffset": 24456,
      "byteLength": 6048,
      "target": 34962
    },
    {
      "buffer": 0,
      "byteOffset": 30504,
      "byteLength": 1008,
      "target": 34963
    },
    {
      "buffer": 0,
      "byteOffset": 31512,
      "byteLength": 6768,
      "target": 34962
    },
    {
      "buffer": 0,
      "byteOffset": 38280,
      "byteLength": 6768,
      "target": 34962
    },
    {
      "buffer": 0,
      "byteOffset": 45048,
      "byteLength": 1128,
      "target": 34963
    },
    {
      "buffer": 0,
      "byteOffset": 46176,
      "byteLength": 5040,
      "target": 34962
    },
    {
      "buffer": 0,
      "byteOffset": 51216,
      "byteLength": 5040,
      "target": 34962
    },
    {
      "buffer": 0,
      "byteOffset": 56256,
      "byteLength": 840,
      "target": 34963
    },
    {
      "buffer": 0,
      "byteOffset": 57096,
      "byteLength": 103680,
      "target": 34962
    },
    {
      "buffer": 0,
      "byteOffset": 160776,
      "byteLength": 103680,
      "target": 34962
    },
    {
      "buffer": 0,
      "byteOffset": 264456,
      "byteLength": 17280,
      "target": 34963
    },
    {
      "buffer": 0,
      "byteOffset": 281736,
      "byteLength": 4032,
      "target": 34962
    },
    {
      "buffer": 0,
      "byteOffset": 285768,
      "byteLength": 4032,
      "target": 34962
    },
    {
      "buffer": 0,
      "byteOffset": 289800,
      "byteLength": 672,
      "target": 34963
    },
    {
      "buffer": 0,
      "byteOffset": 290472,
      "byteLength": 432,
      "target": 34962
    },
    {
      "buffer": 0,
      "byteOffset": 290904,
      "byteLength": 432,
      "target": 34962
    },
    {
      "buffer": 0,
      "byteOffset": 291336,
      "byteLength": 72,
      "target": 34963
    }
  ],
  "accessors": [
    {
      "bufferView": 0,
      "byteOffset": 0,
      "componentType": 5126,
      "count": 468,
      "type": "VEC3",
      "min": [
        -1.38,
        1.3999999999999995,
        -1.38
      ],
      "max": [
        1.38,
        10.2,
        1.38
      ]
    },
    {
      "bufferView": 1,
      "byteOffset": 0,
      "componentType": 5126,
      "count": 468,
      "type": "VEC3"
    },
    {
      "bufferView": 2,
      "byteOffset": 0,
      "componentType": 5123,
      "count": 468,
      "type": "SCALAR",
      "min": [
        0
      ],
      "max": [
        467
      ]
    },
    {
      "bufferView": 3,
      "byteOffset": 0,
      "componentType": 5126,
      "count": 240,
      "type": "VEC3",
      "min": [
        -1.27,
        4.1000000000000005,
        -1.27
      ],
      "max": [
        1.27,
        5.3,
        1.27
      ]
    },
    {
      "bufferView": 4,
      "byteOffset": 0,
      "componentType": 5126,
      "count": 240,
      "type": "VEC3"
    },
    {
      "bufferView": 5,
      "byteOffset": 0,
      "componentType": 5123,
      "count": 240,
      "type": "SCALAR",
      "min": [
        0
      ],
      "max": [
        239
      ]
    },
    {
      "bufferView": 6,
      "byteOffset": 0,
      "componentType": 5126,
      "count": 504,
      "type": "VEC3",
      "min": [
        -1.72,
        0,
        -3.1
      ],
      "max": [
        1.72,
        1.65,
        1.72
      ]
    },
    {
      "bufferView": 7,
      "byteOffset": 0,
      "componentType": 5126,
      "count": 504,
      "type": "VEC3"
    },
    {
      "bufferView": 8,
      "byteOffset": 0,
      "componentType": 5123,
      "count": 504,
      "type": "SCALAR",
      "min": [
        0
      ],
      "max": [
        503
      ]
    },
    {
      "bufferView": 9,
      "byteOffset": 0,
      "componentType": 5126,
      "count": 564,
      "type": "VEC3",
      "min": [
        -1.42,
        10.27,
        -1.42
      ],
      "max": [
        1.42,
        10.530000000000001,
        1.42
      ]
    },
    {
      "bufferView": 10,
      "byteOffset": 0,
      "componentType": 5126,
      "count": 564,
      "type": "VEC3"
    },
    {
      "bufferView": 11,
      "byteOffset": 0,
      "componentType": 5123,
      "count": 564,
      "type": "SCALAR",
      "min": [
        0
      ],
      "max": [
        563
      ]
    },
    {
      "bufferView": 12,
      "byteOffset": 0,
      "componentType": 5126,
      "count": 420,
      "type": "VEC3",
      "min": [
        -0.92,
        10.67,
        -0.92
      ],
      "max": [
        0.92,
        12.01,
        0.92
      ]
    },
    {
      "bufferView": 13,
      "byteOffset": 0,
      "componentType": 5126,
      "count": 420,
      "type": "VEC3"
    },
    {
      "bufferView": 14,
      "byteOffset": 0,
      "componentType": 5123,
      "count": 420,
      "type": "SCALAR",
      "min": [
        0
      ],
      "max": [
        419
      ]
    },
    {
      "bufferView": 15,
      "byteOffset": 0,
      "componentType": 5126,
      "count": 8640,
      "type": "VEC3",
      "min": [
        -1.3376552735366638,
        10.5,
        -1.338
      ],
      "max": [
        1.3376552735366638,
        11.244248711305964,
        1.338
      ]
    },
    {
      "bufferView": 16,
      "byteOffset": 0,
      "componentType": 5126,
      "count": 8640,
      "type": "VEC3"
    },
    {
      "bufferView": 17,
      "byteOffset": 0,
      "componentType": 5123,
      "count": 8640,
      "type": "SCALAR",
      "min": [
        0
      ],
      "max": [
        8639
      ]
    },
    {
      "bufferView": 18,
      "byteOffset": 0,
      "componentType": 5126,
      "count": 336,
      "type": "VEC3",
      "min": [
        -1.95,
        1.65,
        -3.3
      ],
      "max": [
        1.95,
        12.95,
        0.9
      ]
    },
    {
      "bufferView": 19,
      "byteOffset": 0,
      "componentType": 5126,
      "count": 336,
      "type": "VEC3"
    },
    {
      "bufferView": 20,
      "byteOffset": 0,
      "componentType": 5123,
      "count": 336,
      "type": "SCALAR",
      "min": [
        0
      ],
      "max": [
        335
      ]
    },
    {
      "bufferView": 21,
      "byteOffset": 0,
      "componentType": 5126,
      "count": 36,
      "type": "VEC3",
      "min": [
        -0.42,
        5.3,
        1.26
      ],
      "max": [
        0.42,
        6.2,
        1.42
      ]
    },
    {
      "bufferView": 22,
      "byteOffset": 0,
      "componentType": 5126,
      "count": 36,
      "type": "VEC3"
    },
    {
      "bufferView": 23,
      "byteOffset": 0,
      "componentType": 5123,
      "count": 36,
      "type": "SCALAR",
      "min": [
        0
      ],
      "max": [
        35
      ]
    }
  ]
}
