{
  "asset": {
    "version": "2.0",
    "generator": "@plasius/gpu-shared showcase asset generator"
  },
  "scene": 0,
  "scenes": [
    {
      "nodes": [
        0
      ]
    }
  ],
  "nodes": [
    {
      "name": "pilot-launch",
      "children": [
        1,
        2,
        3
      ],
      "extras": {
        "physics": {
          "shape": "box",
          "halfExtents": [
            0.96,
            4.2,
            2.7
          ],
          "mass": 1800,
          "waterline": 0.26,
          "linearDamping": 0.05,
          "angularDamping": 0.1,
          "restitution": 0.15
        }
      }
    },
    {
      "name": "pilot-launch-hull",
      "mesh": 0
    },
    {
      "name": "pilot-launch-wheelhouse",
      "mesh": 1
    },
    {
      "name": "pilot-launch-low-wheelhouse",
      "mesh": 2
    }
  ],
  "meshes": [
    {
      "name": "pilot-launch-hull",
      "primitives": [
        {
          "attributes": {
            "POSITION": 0,
            "NORMAL": 1
          },
          "indices": 2,
          "material": 0
        },
        {
          "attributes": {
            "POSITION": 3,
            "NORMAL": 4
          },
          "indices": 5,
          "material": 1
        }
      ]
    },
    {
      "name": "pilot-launch-wheelhouse",
      "primitives": [
        {
          "attributes": {
            "POSITION": 6,
            "NORMAL": 7
          },
          "indices": 8,
          "material": 2
        },
        {
          "attributes": {
            "POSITION": 9,
            "NORMAL": 10
          },
          "indices": 11,
          "material": 3
        },
        {
          "attributes": {
            "POSITION": 12,
            "NORMAL": 13
          },
          "indices": 14,
          "material": 4
        },
        {
          "attributes": {
            "POSITION": 15,
            "NORMAL": 16
          },
          "indices": 17,
          "material": 5
        }
      ]
    },
    {
      "name": "pilot-launch-low-wheelhouse",
      "primitives": [
        {
          "attributes": {
            "POSITION": 18,
            "NORMAL": 19
          },
          "indices": 20,
          "material": 4
        },
        {
          "attributes": {
            "POSITION": 21,
            "NORMAL": 22
          },
          "indices": 23,
          "material": 6
        }
      ]
    }
  ],
  "materials": [
    {
      "name": "painted-workboat-hull",
      "pbrMetallicRoughness": {
        "baseColorFactor": [
          0.32,
          0.38,
          0.4,
          1
        ],
        "metallicFactor": 0,
        "roughnessFactor": 0.8
      }
    },
    {
      "name": "deck-plank",
      "pbrMetallicRoughness": {
        "baseColorFactor": [
          0.31,
          0.2,
          0.095,
          1
        ],
        "metallicFactor": 0.02,
        "roughnessFactor": 0.9
      }
    },
    {
      "name": "paint-white",
      "pbrMetallicRoughness": {
        "baseColorFactor": [
          0.84,
          0.84,
          0.82,
          1
        ],
        "metallicFactor": 0,
        "roughnessFactor": 0.88
      }
    },
    {
      "name": "warehouse-glazing",
      "pbrMetallicRoughness": {
        "baseColorFactor": [
          0.028,
          0.055,
          0.069,
          1
        ],
        "metallicFactor": 0,
        "roughnessFactor": 0.22
      }
    },
    {
      "name": "metal-dark",
      "pbrMetallicRoughness": {
        "baseColorFactor": [
          0.21,
          0.22,
          0.24,
          1
        ],
        "metallicFactor": 0.84,
        "roughnessFactor": 0.34
      }
    },
    {
      "name": "metal-brass",
      "pbrMetallicRoughness": {
        "baseColorFactor": [
          0.71,
          0.56,
          0.26,
          1
        ],
        "metallicFactor": 0.94,
        "roughnessFactor": 0.3
      }
    },
    {
      "name": "rigging-rope",
      "pbrMetallicRoughness": {
        "baseColorFactor": [
          0.055,
          0.038,
          0.023,
          1
        ],
        "metallicFactor": 0,
        "roughnessFactor": 0.96
      }
    }
  ],
  "buffers": [
    {
      "uri": "data:application/octet-stream;base64,",
      "byteLength": 182832
    }
  ],
  "bufferViews": [
    {
      "buffer": 0,
      "byteOffset": 0,
      "byteLength": 7344,
      "target": 34962
    },
    {
      "buffer": 0,
      "byteOffset": 7344,
      "byteLength": 7344,
      "target": 34962
    },
    {
      "buffer": 0,
      "byteOffset": 14688,
      "byteLength": 1224,
      "target": 34963
    },
    {
      "buffer": 0,
      "byteOffset": 15912,
      "byteLength": 2304,
      "target": 34962
    },
    {
      "buffer": 0,
      "byteOffset": 18216,
      "byteLength": 2304,
      "target": 34962
    },
    {
      "buffer": 0,
      "byteOffset": 20520,
      "byteLength": 384,
      "target": 34963
    },
    {
      "buffer": 0,
      "byteOffset": 20904,
      "byteLength": 864,
      "target": 34962
    },
    {
      "buffer": 0,
      "byteOffset": 21768,
      "byteLength": 864,
      "target": 34962
    },
    {
      "buffer": 0,
      "byteOffset": 22632,
      "byteLength": 144,
      "target": 34963
    },
    {
      "buffer": 0,
      "byteOffset": 22776,
      "byteLength": 3456,
      "target": 34962
    },
    {
      "buffer": 0,
      "byteOffset": 26232,
      "byteLength": 3456,
      "target": 34962
    },
    {
      "buffer": 0,
      "byteOffset": 29688,
      "byteLength": 576,
      "target": 34963
    },
    {
      "buffer": 0,
      "byteOffset": 30264,
      "byteLength": 12528,
      "target": 34962
    },
    {
      "buffer": 0,
      "byteOffset": 42792,
      "byteLength": 12528,
      "target": 34962
    },
    {
      "buffer": 0,
      "byteOffset": 55320,
      "byteLength": 2088,
      "target": 34963
    },
    {
      "buffer": 0,
      "byteOffset": 57408,
      "byteLength": 432,
      "target": 34962
    },
    {
      "buffer": 0,
      "byteOffset": 57840,
      "byteLength": 432,
      "target": 34962
    },
    {
      "buffer": 0,
      "byteOffset": 58272,
      "byteLength": 72,
      "target": 34963
    },
    {
      "buffer": 0,
      "byteOffset": 58344,
      "byteLength": 432,
      "target": 34962
    },
    {
      "buffer": 0,
      "byteOffset": 58776,
      "byteLength": 432,
      "target": 34962
    },
    {
      "buffer": 0,
      "byteOffset": 59208,
      "byteLength": 72,
      "target": 34963
    },
    {
      "buffer": 0,
      "byteOffset": 59280,
      "byteLength": 57024,
      "target": 34962
    },
    {
      "buffer": 0,
      "byteOffset": 116304,
      "byteLength": 57024,
      "target": 34962
    },
    {
      "buffer": 0,
      "byteOffset": 173328,
      "byteLength": 9504,
      "target": 34963
    }
  ],
  "accessors": [
    {
      "bufferView": 0,
      "byteOffset": 0,
      "componentType": 5126,
      "count": 612,
      "type": "VEC3",
      "min": [
        -0.772053125,
        -0.6859375,
        -2.7
      ],
      "max": [
        0.772053125,
        0.85,
        2.7
      ]
    },
    {
      "bufferView": 1,
      "byteOffset": 0,
      "componentType": 5126,
      "count": 612,
      "type": "VEC3"
    },
    {
      "bufferView": 2,
      "byteOffset": 0,
      "componentType": 5123,
      "count": 612,
      "type": "SCALAR",
      "min": [
        0
      ],
      "max": [
        611
      ]
    },
    {
      "bufferView": 3,
      "byteOffset": 0,
      "componentType": 5126,
      "count": 192,
      "type": "VEC3",
      "min": [
        -0.772053125,
        0.65,
        -2.7
      ],
      "max": [
        0.772053125,
        0.85,
        2.7
      ]
    },
    {
      "bufferView": 4,
      "byteOffset": 0,
      "componentType": 5126,
      "count": 192,
      "type": "VEC3"
    },
    {
      "bufferView": 5,
      "byteOffset": 0,
      "componentType": 5123,
      "count": 192,
      "type": "SCALAR",
      "min": [
        0
      ],
      "max": [
        191
      ]
    },
    {
      "bufferView": 6,
      "byteOffset": 0,
      "componentType": 5126,
      "count": 72,
      "type": "VEC3",
      "min": [
        -0.55,
        0.76,
        -0.9199999999999999
      ],
      "max": [
        0.55,
        1.58,
        1.65
      ]
    },
    {
      "bufferView": 7,
      "byteOffset": 0,
      "componentType": 5126,
      "count": 72,
      "type": "VEC3"
    },
    {
      "bufferView": 8,
      "byteOffset": 0,
      "componentType": 5123,
      "count": 72,
      "type": "SCALAR",
      "min": [
        0
      ],
      "max": [
        71
      ]
    },
    {
      "bufferView": 9,
      "byteOffset": 0,
      "componentType": 5126,
      "count": 288,
      "type": "VEC3",
      "min": [
        -0.5432,
        1.11,
        -0.7999999999999999
      ],
      "max": [
        0.5432,
        1.46,
        0.76
      ]
    },
    {
      "bufferView": 10,
      "byteOffset": 0,
      "componentType": 5126,
      "count": 288,
      "type": "VEC3"
    },
    {
      "bufferView": 11,
      "byteOffset": 0,
      "componentType": 5123,
      "count": 288,
      "type": "SCALAR",
      "min": [
        0
      ],
      "max": [
        287
      ]
    },
    {
      "bufferView": 12,
      "byteOffset": 0,
      "componentType": 5126,
      "count": 1044,
      "type": "VEC3",
      "min": [
        -0.7049459390884752,
        0.75,
        -2.1870000000000003
      ],
      "max": [
        0.7049459390884752,
        2.9050000000000002,
        2.1870000000000003
      ]
    },
    {
      "bufferView": 13,
      "byteOffset": 0,
      "componentType": 5126,
      "count": 1044,
      "type": "VEC3"
    },
    {
      "bufferView": 14,
      "byteOffset": 0,
      "componentType": 5123,
      "count": 1044,
      "type": "SCALAR",
      "min": [
        0
      ],
      "max": [
        1043
      ]
    },
    {
      "bufferView": 15,
      "byteOffset": 0,
      "componentType": 5126,
      "count": 36,
      "type": "VEC3",
      "min": [
        -0.01905255888325765,
        1.7,
        -0.222
      ],
      "max": [
        0.019052558883257648,
        2.2,
        -0.17800000000000002
      ]
    },
    {
      "bufferView": 16,
      "byteOffset": 0,
      "componentType": 5126,
      "count": 36,
      "type": "VEC3"
    },
    {
      "bufferView": 17,
      "byteOffset": 0,
      "componentType": 5123,
      "count": 36,
      "type": "SCALAR",
      "min": [
        0
      ],
      "max": [
        35
      ]
    },
    {
      "bufferView": 18,
      "byteOffset": 0,
      "componentType": 5126,
      "count": 36,
      "type": "VEC3",
      "min": [
        -0.47,
        1.6,
        -1.1
      ],
      "max": [
        0.47,
        1.68,
        0.85
      ]
    },
    {
      "bufferView": 19,
      "byteOffset": 0,
      "componentType": 5126,
      "count": 36,
      "type": "VEC3"
    },
    {
      "bufferView": 20,
      "byteOffset": 0,
      "componentType": 5123,
      "count": 36,
      "type": "SCALAR",
      "min": [
        0
      ],
      "max": [
        35
      ]
    },
    {
      "bufferView": 21,
      "byteOffset": 0,
      "componentType": 5126,
      "count": 4752,
      "type": "VEC3",
      "min": [
        -0.6995632531862954,
        1.08941154273188,
        -2.1630467065217993
      ],
      "max": [
        0.6995632531862954,
        1.1455884572681199,
        2.1630467065217993
      ]
    },
    {
      "bufferView": 22,
      "byteOffset": 0,
      "componentType": 5126,
      "count": 4752,
      "type": "VEC3"
    },
    {
      "bufferView": 23,
      "byteOffset": 0,
      "componentType": 5123,
      "count": 4752,
      "type": "SCALAR",
      "min": [
        0
      ],
      "max": [
        4751
      ]
    }
  ]
}
