{
  "asset": {
    "version": "2.0",
    "generator": "@plasius/gpu-shared showcase asset generator"
  },
  "scene": 0,
  "scenes": [
    {
      "nodes": [
        0
      ]
    }
  ],
  "nodes": [
    {
      "name": "shoreline",
      "children": [
        1,
        2,
        3,
        4,
        5
      ]
    },
    {
      "name": "shoreline-headland",
      "mesh": 0
    },
    {
      "name": "shoreline-beach",
      "mesh": 1
    },
    {
      "name": "shoreline-rocks",
      "mesh": 2
    },
    {
      "name": "shoreline-breakwater",
      "mesh": 3
    },
    {
      "name": "shoreline-detail",
      "mesh": 4
    }
  ],
  "meshes": [
    {
      "name": "shoreline-headland",
      "primitives": [
        {
          "attributes": {
            "POSITION": 0,
            "NORMAL": 1
          },
          "indices": 2,
          "material": 0
        }
      ]
    },
    {
      "name": "shoreline-beach",
      "primitives": [
        {
          "attributes": {
            "POSITION": 3,
            "NORMAL": 4
          },
          "indices": 5,
          "material": 1
        },
        {
          "attributes": {
            "POSITION": 6,
            "NORMAL": 7
          },
          "indices": 8,
          "material": 2
        },
        {
          "attributes": {
            "POSITION": 9,
            "NORMAL": 10
          },
          "indices": 11,
          "material": 3
        }
      ]
    },
    {
      "name": "shoreline-rocks",
      "primitives": [
        {
          "attributes": {
            "POSITION": 12,
            "NORMAL": 13
          },
          "indices": 14,
          "material": 4
        }
      ]
    },
    {
      "name": "shoreline-breakwater",
      "primitives": [
        {
          "attributes": {
            "POSITION": 15,
            "NORMAL": 16
          },
          "indices": 17,
          "material": 5
        }
      ]
    },
    {
      "name": "shoreline-detail",
      "primitives": [
        {
          "attributes": {
            "POSITION": 18,
            "NORMAL": 19
          },
          "indices": 20,
          "material": 6
        }
      ]
    }
  ],
  "materials": [
    {
      "name": "headland-grass",
      "pbrMetallicRoughness": {
        "baseColorFactor": [
          0.085,
          0.12,
          0.055,
          1
        ],
        "metallicFactor": 0,
        "roughnessFactor": 0.98
      }
    },
    {
      "name": "shore-sand",
      "pbrMetallicRoughness": {
        "baseColorFactor": [
          0.45,
          0.42,
          0.34,
          1
        ],
        "metallicFactor": 0,
        "roughnessFactor": 0.98
      }
    },
    {
      "name": "foam-stain",
      "pbrMetallicRoughness": {
        "baseColorFactor": [
          0.78,
          0.82,
          0.78,
          0.68
        ],
        "metallicFactor": 0,
        "roughnessFactor": 0.99
      },
      "alphaMode": "BLEND"
    },
    {
      "name": "seaweed",
      "pbrMetallicRoughness": {
        "baseColorFactor": [
          0.07,
          0.16,
          0.1,
          1
        ],
        "metallicFactor": 0,
        "roughnessFactor": 0.96
      }
    },
    {
      "name": "wet-rock",
      "pbrMetallicRoughness": {
        "baseColorFactor": [
          0.2,
          0.22,
          0.22,
          1
        ],
        "metallicFactor": 0.02,
        "roughnessFactor": 0.9
      }
    },
    {
      "name": "stone",
      "pbrMetallicRoughness": {
        "baseColorFactor": [
          0.49,
          0.48,
          0.46,
          1
        ],
        "metallicFactor": 0,
        "roughnessFactor": 0.97
      }
    },
    {
      "name": "driftwood",
      "pbrMetallicRoughness": {
        "baseColorFactor": [
          0.31,
          0.25,
          0.18,
          1
        ],
        "metallicFactor": 0.02,
        "roughnessFactor": 0.94
      }
    }
  ],
  "buffers": [
    {
      "uri": "data:application/octet-stream;base64,",
      "byteLength": 226824
    }
  ],
  "bufferViews": [
    {
      "buffer": 0,
      "byteOffset": 0,
      "byteLength": 81648,
      "target": 34962
    },
    {
      "buffer": 0,
      "byteOffset": 81648,
      "byteLength": 81648,
      "target": 34962
    },
    {
      "buffer": 0,
      "byteOffset": 163296,
      "byteLength": 13608,
      "target": 34963
    },
    {
      "buffer": 0,
      "byteOffset": 176904,
      "byteLength": 288,
      "target": 34962
    },
    {
      "buffer": 0,
      "byteOffset": 177192,
      "byteLength": 288,
      "target": 34962
    },
    {
      "buffer": 0,
      "byteOffset": 177480,
      "byteLength": 48,
      "target": 34963
    },
    {
      "buffer": 0,
      "byteOffset": 177528,
      "byteLength": 144,
      "target": 34962
    },
    {
      "buffer": 0,
      "byteOffset": 177672,
      "byteLength": 144,
      "target": 34962
    },
    {
      "buffer": 0,
      "byteOffset": 177816,
      "byteLength": 24,
      "target": 34963
    },
    {
      "buffer": 0,
      "byteOffset": 177840,
      "byteLength": 288,
      "target": 34962
    },
    {
      "buffer": 0,
      "byteOffset": 178128,
      "byteLength": 288,
      "target": 34962
    },
    {
      "buffer": 0,
      "byteOffset": 178416,
      "byteLength": 48,
      "target": 34963
    },
    {
      "buffer": 0,
      "byteOffset": 178464,
      "byteLength": 18000,
      "target": 34962
    },
    {
      "buffer": 0,
      "byteOffset": 196464,
      "byteLength": 18000,
      "target": 34962
    },
    {
      "buffer": 0,
      "byteOffset": 214464,
      "byteLength": 3000,
      "target": 34963
    },
    {
      "buffer": 0,
      "byteOffset": 217464,
      "byteLength": 1296,
      "target": 34962
    },
    {
      "buffer": 0,
      "byteOffset": 218760,
      "byteLength": 1296,
      "target": 34962
    },
    {
      "buffer": 0,
      "byteOffset": 220056,
      "byteLength": 216,
      "target": 34963
    },
    {
      "buffer": 0,
      "byteOffset": 220272,
      "byteLength": 3024,
      "target": 34962
    },
    {
      "buffer": 0,
      "byteOffset": 223296,
      "byteLength": 3024,
      "target": 34962
    },
    {
      "buffer": 0,
      "byteOffset": 226320,
      "byteLength": 504,
      "target": 34963
    }
  ],
  "accessors": [
    {
      "bufferView": 0,
      "byteOffset": 0,
      "componentType": 5126,
      "count": 6804,
      "type": "VEC3",
      "min": [
        -34,
        -0.12,
        -38
      ],
      "max": [
        29,
        11.73326600527763,
        2.5
      ]
    },
    {
      "bufferView": 1,
      "byteOffset": 0,
      "componentType": 5126,
      "count": 6804,
      "type": "VEC3"
    },
    {
      "bufferView": 2,
      "byteOffset": 0,
      "componentType": 5123,
      "count": 6804,
      "type": "SCALAR",
      "min": [
        0
      ],
      "max": [
        6803
      ]
    },
    {
      "bufferView": 3,
      "byteOffset": 0,
      "componentType": 5126,
      "count": 24,
      "type": "VEC3",
      "min": [
        -10.4,
        -0.42,
        -2.7
      ],
      "max": [
        8.8,
        1.02,
        4.1
      ]
    },
    {
      "bufferView": 4,
      "byteOffset": 0,
      "componentType": 5126,
      "count": 24,
      "type": "VEC3"
    },
    {
      "bufferView": 5,
      "byteOffset": 0,
      "componentType": 5123,
      "count": 24,
      "type": "SCALAR",
      "min": [
        0
      ],
      "max": [
        23
      ]
    },
    {
      "bufferView": 6,
      "byteOffset": 0,
      "componentType": 5126,
      "count": 12,
      "type": "VEC3",
      "min": [
        -9.2,
        -0.3,
        2.22
      ],
      "max": [
        7.8,
        -0.04,
        3.4
      ]
    },
    {
      "bufferView": 7,
      "byteOffset": 0,
      "componentType": 5126,
      "count": 12,
      "type": "VEC3"
    },
    {
      "bufferView": 8,
      "byteOffset": 0,
      "componentType": 5123,
      "count": 12,
      "type": "SCALAR",
      "min": [
        0
      ],
      "max": [
        11
      ]
    },
    {
      "bufferView": 9,
      "byteOffset": 0,
      "componentType": 5126,
      "count": 24,
      "type": "VEC3",
      "min": [
        -7.383786023351918,
        -0.26,
        1.8560452415396493
      ],
      "max": [
        5.607788515870297,
        -0.22,
        2.7888905752918367
      ]
    },
    {
      "bufferView": 10,
      "byteOffset": 0,
      "componentType": 5126,
      "count": 24,
      "type": "VEC3"
    },
    {
      "bufferView": 11,
      "byteOffset": 0,
      "componentType": 5123,
      "count": 24,
      "type": "SCALAR",
      "min": [
        0
      ],
      "max": [
        23
      ]
    },
    {
      "bufferView": 12,
      "byteOffset": 0,
      "componentType": 5126,
      "count": 1500,
      "type": "VEC3",
      "min": [
        -9.031678982583264,
        -0.36,
        -0.446021426396558
      ],
      "max": [
        6.943378646876524,
        0.9654596781956905,
        3.54723846913982
      ]
    },
    {
      "bufferView": 13,
      "byteOffset": 0,
      "componentType": 5126,
      "count": 1500,
      "type": "VEC3"
    },
    {
      "bufferView": 14,
      "byteOffset": 0,
      "componentType": 5123,
      "count": 1500,
      "type": "SCALAR",
      "min": [
        0
      ],
      "max": [
        1499
      ]
    },
    {
      "bufferView": 15,
      "byteOffset": 0,
      "componentType": 5126,
      "count": 108,
      "type": "VEC3",
      "min": [
        -9.5,
        -0.1,
        -2.92
      ],
      "max": [
        5.8,
        1.12,
        -1.38
      ]
    },
    {
      "bufferView": 16,
      "byteOffset": 0,
      "componentType": 5126,
      "count": 108,
      "type": "VEC3"
    },
    {
      "bufferView": 17,
      "byteOffset": 0,
      "componentType": 5123,
      "count": 108,
      "type": "SCALAR",
      "min": [
        0
      ],
      "max": [
        107
      ]
    },
    {
      "bufferView": 18,
      "byteOffset": 0,
      "componentType": 5126,
      "count": 252,
      "type": "VEC3",
      "min": [
        -2.96,
        -0.76,
        1.57
      ],
      "max": [
        3.94,
        0.96,
        1.9951056516295154
      ]
    },
    {
      "bufferView": 19,
      "byteOffset": 0,
      "componentType": 5126,
      "count": 252,
      "type": "VEC3"
    },
    {
      "bufferView": 20,
      "byteOffset": 0,
      "componentType": 5123,
      "count": 252,
      "type": "SCALAR",
      "min": [
        0
      ],
      "max": [
        251
      ]
    }
  ]
}
