{
  "asset": {
    "version": "2.0",
    "generator": "@plasius/gpu-shared showcase asset generator"
  },
  "scene": 0,
  "scenes": [
    {
      "nodes": [
        0
      ]
    }
  ],
  "nodes": [
    {
      "name": "tug",
      "children": [
        1,
        2,
        3
      ],
      "extras": {
        "physics": {
          "shape": "box",
          "halfExtents": [
            1.25,
            4.2,
            3.1
          ],
          "mass": 1800,
          "waterline": 0.34,
          "linearDamping": 0.05,
          "angularDamping": 0.1,
          "restitution": 0.15
        }
      }
    },
    {
      "name": "tug-hull",
      "mesh": 0
    },
    {
      "name": "tug-wheelhouse",
      "mesh": 1
    },
    {
      "name": "tug-towing-gear",
      "mesh": 2
    }
  ],
  "meshes": [
    {
      "name": "tug-hull",
      "primitives": [
        {
          "attributes": {
            "POSITION": 0,
            "NORMAL": 1
          },
          "indices": 2,
          "material": 0
        },
        {
          "attributes": {
            "POSITION": 3,
            "NORMAL": 4
          },
          "indices": 5,
          "material": 1
        }
      ]
    },
    {
      "name": "tug-wheelhouse",
      "primitives": [
        {
          "attributes": {
            "POSITION": 6,
            "NORMAL": 7
          },
          "indices": 8,
          "material": 2
        },
        {
          "attributes": {
            "POSITION": 9,
            "NORMAL": 10
          },
          "indices": 11,
          "material": 3
        },
        {
          "attributes": {
            "POSITION": 12,
            "NORMAL": 13
          },
          "indices": 14,
          "material": 4
        }
      ]
    },
    {
      "name": "tug-towing-gear",
      "primitives": [
        {
          "attributes": {
            "POSITION": 15,
            "NORMAL": 16
          },
          "indices": 17,
          "material": 4
        },
        {
          "attributes": {
            "POSITION": 18,
            "NORMAL": 19
          },
          "indices": 20,
          "material": 5
        }
      ]
    }
  ],
  "materials": [
    {
      "name": "painted-workboat-hull",
      "pbrMetallicRoughness": {
        "baseColorFactor": [
          0.32,
          0.38,
          0.4,
          1
        ],
        "metallicFactor": 0,
        "roughnessFactor": 0.8
      }
    },
    {
      "name": "deck-plank",
      "pbrMetallicRoughness": {
        "baseColorFactor": [
          0.31,
          0.2,
          0.095,
          1
        ],
        "metallicFactor": 0.02,
        "roughnessFactor": 0.9
      }
    },
    {
      "name": "paint-white",
      "pbrMetallicRoughness": {
        "baseColorFactor": [
          0.84,
          0.84,
          0.82,
          1
        ],
        "metallicFactor": 0,
        "roughnessFactor": 0.88
      }
    },
    {
      "name": "warehouse-glazing",
      "pbrMetallicRoughness": {
        "baseColorFactor": [
          0.028,
          0.055,
          0.069,
          1
        ],
        "metallicFactor": 0,
        "roughnessFactor": 0.22
      }
    },
    {
      "name": "metal-dark",
      "pbrMetallicRoughness": {
        "baseColorFactor": [
          0.21,
          0.22,
          0.24,
          1
        ],
        "metallicFactor": 0.84,
        "roughnessFactor": 0.34
      }
    },
    {
      "name": "rigging-rope",
      "pbrMetallicRoughness": {
        "baseColorFactor": [
          0.055,
          0.038,
          0.023,
          1
        ],
        "metallicFactor": 0,
        "roughnessFactor": 0.96
      }
    }
  ],
  "buffers": [
    {
      "uri": "data:application/octet-stream;base64,",
      "byteLength": 214656
    }
  ],
  "bufferViews": [
    {
      "buffer": 0,
      "byteOffset": 0,
      "byteLength": 7344,
      "target": 34962
    },
    {
      "buffer": 0,
      "byteOffset": 7344,
      "byteLength": 7344,
      "target": 34962
    },
    {
      "buffer": 0,
      "byteOffset": 14688,
      "byteLength": 1224,
      "target": 34963
    },
    {
      "buffer": 0,
      "byteOffset": 15912,
      "byteLength": 2304,
      "target": 34962
    },
    {
      "buffer": 0,
      "byteOffset": 18216,
      "byteLength": 2304,
      "target": 34962
    },
    {
      "buffer": 0,
      "byteOffset": 20520,
      "byteLength": 384,
      "target": 34963
    },
    {
      "buffer": 0,
      "byteOffset": 20904,
      "byteLength": 432,
      "target": 34962
    },
    {
      "buffer": 0,
      "byteOffset": 21336,
      "byteLength": 432,
      "target": 34962
    },
    {
      "buffer": 0,
      "byteOffset": 21768,
      "byteLength": 72,
      "target": 34963
    },
    {
      "buffer": 0,
      "byteOffset": 21840,
      "byteLength": 3456,
      "target": 34962
    },
    {
      "buffer": 0,
      "byteOffset": 25296,
      "byteLength": 3456,
      "target": 34962
    },
    {
      "buffer": 0,
      "byteOffset": 28752,
      "byteLength": 576,
      "target": 34963
    },
    {
      "buffer": 0,
      "byteOffset": 29328,
      "byteLength": 12528,
      "target": 34962
    },
    {
      "buffer": 0,
      "byteOffset": 41856,
      "byteLength": 12528,
      "target": 34962
    },
    {
      "buffer": 0,
      "byteOffset": 54384,
      "byteLength": 2088,
      "target": 34963
    },
    {
      "buffer": 0,
      "byteOffset": 56472,
      "byteLength": 15984,
      "target": 34962
    },
    {
      "buffer": 0,
      "byteOffset": 72456,
      "byteLength": 15984,
      "target": 34962
    },
    {
      "buffer": 0,
      "byteOffset": 88440,
      "byteLength": 2664,
      "target": 34963
    },
    {
      "buffer": 0,
      "byteOffset": 91104,
      "byteLength": 57024,
      "target": 34962
    },
    {
      "buffer": 0,
      "byteOffset": 148128,
      "byteLength": 57024,
      "target": 34962
    },
    {
      "buffer": 0,
      "byteOffset": 205152,
      "byteLength": 9504,
      "target": 34963
    }
  ],
  "accessors": [
    {
      "bufferView": 0,
      "byteOffset": 0,
      "componentType": 5126,
      "count": 612,
      "type": "VEC3",
      "min": [
        -1.06665234375,
        -0.6859375,
        -3.1
      ],
      "max": [
        1.06665234375,
        0.85,
        3.1
      ]
    },
    {
      "bufferView": 1,
      "byteOffset": 0,
      "componentType": 5126,
      "count": 612,
      "type": "VEC3"
    },
    {
      "bufferView": 2,
      "byteOffset": 0,
      "componentType": 5123,
      "count": 612,
      "type": "SCALAR",
      "min": [
        0
      ],
      "max": [
        611
      ]
    },
    {
      "bufferView": 3,
      "byteOffset": 0,
      "componentType": 5126,
      "count": 192,
      "type": "VEC3",
      "min": [
        -1.06665234375,
        0.65,
        -3.1
      ],
      "max": [
        1.06665234375,
        0.85,
        3.1
      ]
    },
    {
      "bufferView": 4,
      "byteOffset": 0,
      "componentType": 5126,
      "count": 192,
      "type": "VEC3"
    },
    {
      "bufferView": 5,
      "byteOffset": 0,
      "componentType": 5123,
      "count": 192,
      "type": "SCALAR",
      "min": [
        0
      ],
      "max": [
        191
      ]
    },
    {
      "bufferView": 6,
      "byteOffset": 0,
      "componentType": 5126,
      "count": 36,
      "type": "VEC3",
      "min": [
        -0.7035000000000001,
        0.78,
        -0.6699999999999999
      ],
      "max": [
        0.7035000000000001,
        2.4299999999999997,
        0.97
      ]
    },
    {
      "bufferView": 7,
      "byteOffset": 0,
      "componentType": 5126,
      "count": 36,
      "type": "VEC3"
    },
    {
      "bufferView": 8,
      "byteOffset": 0,
      "componentType": 5123,
      "count": 36,
      "type": "SCALAR",
      "min": [
        0
      ],
      "max": [
        35
      ]
    },
    {
      "bufferView": 9,
      "byteOffset": 0,
      "componentType": 5126,
      "count": 288,
      "type": "VEC3",
      "min": [
        -0.7375000000000002,
        1.9599999999999997,
        -0.5499999999999999
      ],
      "max": [
        0.7375000000000002,
        2.3099999999999996,
        1.01
      ]
    },
    {
      "bufferView": 10,
      "byteOffset": 0,
      "componentType": 5126,
      "count": 288,
      "type": "VEC3"
    },
    {
      "bufferView": 11,
      "byteOffset": 0,
      "componentType": 5123,
      "count": 288,
      "type": "SCALAR",
      "min": [
        0
      ],
      "max": [
        287
      ]
    },
    {
      "bufferView": 12,
      "byteOffset": 0,
      "componentType": 5126,
      "count": 1044,
      "type": "VEC3",
      "min": [
        -0.9650161278042985,
        0.75,
        -2.5070000000000006
      ],
      "max": [
        0.9650161278042985,
        3.755,
        2.5070000000000006
      ]
    },
    {
      "bufferView": 13,
      "byteOffset": 0,
      "componentType": 5126,
      "count": 1044,
      "type": "VEC3"
    },
    {
      "bufferView": 14,
      "byteOffset": 0,
      "componentType": 5123,
      "count": 1044,
      "type": "SCALAR",
      "min": [
        0
      ],
      "max": [
        1043
      ]
    },
    {
      "bufferView": 15,
      "byteOffset": 0,
      "componentType": 5126,
      "count": 1332,
      "type": "VEC3",
      "min": [
        -1.1995,
        0.26,
        -2.4
      ],
      "max": [
        1.1995,
        2.025,
        1.66
      ]
    },
    {
      "bufferView": 16,
      "byteOffset": 0,
      "componentType": 5126,
      "count": 1332,
      "type": "VEC3"
    },
    {
      "bufferView": 17,
      "byteOffset": 0,
      "componentType": 5123,
      "count": 1332,
      "type": "SCALAR",
      "min": [
        0
      ],
      "max": [
        1331
      ]
    },
    {
      "bufferView": 18,
      "byteOffset": 0,
      "componentType": 5126,
      "count": 4752,
      "type": "VEC3",
      "min": [
        -0.9596334419021186,
        1.08941154273188,
        -2.483642833533166
      ],
      "max": [
        0.9596334419021186,
        1.1455884572681199,
        2.483642833533166
      ]
    },
    {
      "bufferView": 19,
      "byteOffset": 0,
      "componentType": 5126,
      "count": 4752,
      "type": "VEC3"
    },
    {
      "bufferView": 20,
      "byteOffset": 0,
      "componentType": 5123,
      "count": 4752,
      "type": "SCALAR",
      "min": [
        0
      ],
      "max": [
        4751
      ]
    }
  ]
}
